<?xml version="1.0" standalone="no"?>
<!DOCTYPE svg PUBLIC "-//W3C//DTD SVG 20010904//EN"
 "http://www.w3.org/TR/2001/REC-SVG-20010904/DTD/svg10.dtd">
<svg version="1.0" xmlns="http://www.w3.org/2000/svg"
 width="3000.000000pt" height="3000.000000pt" viewBox="0 0 3000.000000 3000.000000"
 preserveAspectRatio="xMidYMid meet">
<metadata>
Created by potrace 1.11, written by Peter Selinger 2001-2013
</metadata>
<g transform="translate(0.000000,3000.000000) scale(0.100000,-0.100000)"
fill="#000000" stroke="none">
<path d="M7744 19900 c-5 -5 -33 -10 -61 -11 -35 -2 -50 -6 -46 -13 4 -6 -1
-5 -10 3 -9 7 -17 9 -17 4 0 -9 -20 -13 -82 -16 -21 -1 -38 -7 -38 -13 0 -6
-17 -10 -41 -10 -22 1 -43 -3 -47 -8 -3 -5 1 -6 8 -1 8 5 11 4 6 -3 -3 -6 -15
-9 -26 -7 -11 2 -22 -1 -25 -6 -4 -5 -11 -7 -16 -4 -5 4 -9 2 -9 -3 0 -6 -6
-10 -12 -9 -35 1 -48 -5 -49 -20 0 -11 -3 -13 -6 -6 -3 9 -10 10 -22 3 -10 -5
-22 -6 -26 -2 -5 4 -5 2 -1 -5 6 -11 -24 -25 -59 -28 -5 -1 -9 -6 -7 -13 1 -7
-7 -12 -18 -12 -10 0 -24 -8 -29 -17 -6 -10 -11 -14 -11 -10 0 4 -10 2 -22 -5
-13 -7 -26 -11 -31 -10 -4 1 -6 -3 -5 -10 2 -7 -4 -12 -12 -13 -8 0 -14 -7
-12 -14 1 -7 -1 -10 -6 -7 -10 6 -55 -27 -91 -66 -14 -16 -31 -28 -37 -28 -7
0 -15 -7 -18 -16 -3 -8 -10 -13 -15 -10 -5 3 -12 -5 -15 -19 -4 -16 -13 -25
-26 -25 -14 0 -18 -5 -13 -17 4 -10 2 -14 -4 -10 -6 4 -17 -1 -24 -10 -12 -14
-12 -16 1 -9 8 4 6 -1 -6 -11 -12 -10 -26 -29 -33 -41 -7 -12 -16 -20 -22 -17
-5 4 -9 3 -7 -2 4 -16 -44 -83 -55 -76 -7 3 -9 3 -5 -2 10 -11 -11 -47 -22
-40 -6 3 -7 -1 -4 -9 3 -9 1 -16 -6 -16 -6 0 -9 -4 -5 -9 3 -5 -3 -16 -12 -23
-10 -7 -19 -19 -21 -26 -1 -7 -14 -31 -28 -54 -14 -22 -20 -37 -12 -33 7 3 5
0 -4 -8 -10 -8 -18 -18 -18 -22 0 -4 -10 -21 -22 -38 -12 -17 -16 -27 -9 -23
10 7 10 4 0 -12 -7 -12 -17 -19 -21 -16 -4 3 -5 -3 -1 -12 4 -10 0 -20 -12
-26 -14 -8 -15 -12 -4 -19 11 -7 11 -9 -2 -9 -9 0 -20 -7 -23 -16 -6 -15 -4
-15 11 -3 17 13 17 13 1 -7 -10 -11 -18 -26 -18 -33 0 -7 -4 -10 -9 -6 -6 3
-8 -4 -6 -15 2 -11 0 -20 -6 -20 -5 0 -8 -3 -8 -7 3 -19 -2 -33 -17 -47 -10
-10 -11 -16 -3 -16 8 0 9 -3 0 -13 -6 -8 -7 -18 -3 -22 4 -5 1 -5 -5 -1 -13 7
-17 -5 -14 -33 2 -8 -2 -10 -10 -5 -9 5 -10 2 -6 -9 3 -10 2 -17 -3 -17 -6 0
-10 -13 -10 -29 0 -16 -5 -31 -10 -33 -6 -2 -11 -17 -13 -35 -1 -17 -4 -31 -7
-31 -19 1 -23 -4 -10 -12 9 -6 11 -10 3 -10 -7 0 -10 -7 -7 -15 4 -8 -1 -17
-9 -21 -9 -3 -13 -12 -10 -20 3 -8 0 -14 -6 -14 -6 0 -11 -14 -11 -31 0 -19
-4 -28 -11 -24 -6 4 -10 1 -8 -6 3 -29 -1 -50 -11 -44 -5 3 -10 1 -10 -4 0 -6
6 -11 13 -11 7 0 8 -3 2 -8 -5 -4 -16 -18 -23 -31 -11 -19 -11 -22 0 -16 10 6
11 5 1 -6 -7 -7 -13 -22 -13 -33 0 -12 -7 -29 -15 -39 -7 -11 -11 -25 -9 -32
3 -7 1 -16 -5 -20 -6 -3 -11 -15 -11 -26 0 -11 -4 -17 -10 -14 -6 4 -8 -6 -6
-24 2 -19 -2 -32 -10 -35 -8 -3 -14 -19 -14 -36 0 -17 -4 -29 -9 -26 -4 3 -8
-7 -7 -22 0 -18 -4 -26 -14 -24 -11 3 -11 0 1 -14 9 -12 9 -15 2 -10 -9 5 -13
1 -13 -13 0 -10 -6 -22 -12 -24 -10 -4 -10 -6 0 -6 10 -1 10 -5 -2 -16 -8 -9
-13 -22 -10 -29 3 -8 1 -17 -5 -21 -6 -3 -11 -17 -11 -31 0 -13 -4 -24 -10
-24 -5 0 -10 -14 -10 -31 0 -16 -4 -28 -8 -25 -5 3 -9 -7 -10 -23 -1 -34 -35
-94 -48 -83 -4 4 -3 0 4 -9 9 -12 8 -20 -4 -37 -12 -17 -12 -22 -2 -22 9 0 10
-3 2 -8 -6 -4 -14 -17 -18 -30 -5 -13 -12 -20 -19 -16 -9 5 -9 4 -1 -5 13 -14
7 -54 -6 -46 -5 3 -7 -6 -6 -19 2 -15 -3 -27 -13 -31 -13 -5 -14 -7 -1 -15 13
-8 12 -10 -2 -10 -11 0 -15 -5 -12 -15 4 -9 0 -15 -7 -15 -11 0 -11 -3 1 -10
11 -7 11 -10 2 -10 -7 0 -10 -4 -7 -10 3 -5 2 -10 -3 -10 -6 0 -13 -7 -16 -16
-3 -9 -2 -12 5 -8 7 4 7 0 1 -12 -5 -11 -15 -32 -22 -49 -6 -16 -18 -43 -26
-58 -10 -20 -10 -26 -1 -21 6 4 3 -3 -8 -16 -13 -15 -15 -21 -5 -16 8 4 6 0
-4 -8 -15 -12 -16 -16 -5 -16 9 0 10 -3 3 -8 -6 -4 -10 -15 -9 -24 2 -9 -2
-15 -9 -12 -8 3 -11 -7 -11 -30 1 -19 -2 -33 -7 -30 -4 3 -8 -4 -8 -15 0 -12
-4 -21 -10 -21 -5 0 -10 -5 -10 -11 0 -5 5 -7 11 -3 6 3 3 -5 -6 -20 -10 -14
-13 -26 -9 -26 5 0 3 -4 -5 -9 -8 -5 -15 -17 -16 -28 -2 -17 -5 -26 -22 -70
-3 -10 -5 -21 -5 -25 1 -5 -2 -8 -7 -8 -5 0 -8 -8 -7 -17 2 -10 -1 -20 -5 -23
-5 -3 -9 -20 -11 -37 -1 -17 -6 -29 -10 -27 -8 5 -11 -9 -11 -48 0 -11 -5 -14
-16 -10 -14 5 -14 4 -2 -12 8 -9 10 -16 5 -15 -21 4 -28 -2 -14 -11 10 -6 11
-10 3 -10 -7 0 -16 -18 -19 -40 -4 -22 -10 -37 -14 -35 -5 3 -7 -3 -6 -12 2
-10 -3 -27 -11 -39 -7 -11 -10 -24 -6 -28 5 -4 1 -13 -7 -19 -9 -7 -16 -21
-16 -32 0 -11 -4 -19 -9 -18 -6 1 -11 -15 -13 -34 -1 -20 -7 -42 -13 -50 -6
-7 -8 -13 -4 -13 4 0 2 -6 -4 -13 -6 -8 -8 -17 -4 -20 3 -4 1 -7 -5 -7 -7 0
-11 -3 -11 -7 4 -24 -2 -53 -10 -49 -5 4 -8 -2 -7 -11 2 -10 0 -20 -4 -23 -5
-3 -10 -14 -12 -25 -1 -11 -10 -26 -18 -33 -8 -8 -9 -11 -2 -7 6 3 12 1 12 -4
0 -6 -4 -11 -9 -11 -5 0 -12 -7 -15 -16 -4 -10 -2 -13 7 -8 9 6 9 5 0 -8 -7
-8 -10 -18 -6 -21 3 -4 2 -7 -4 -7 -6 0 -14 -7 -17 -16 -3 -8 -2 -12 4 -9 6 3
7 -1 4 -9 -3 -9 -10 -14 -15 -11 -4 3 -6 -3 -4 -14 2 -11 -3 -25 -11 -32 -8
-6 -14 -17 -14 -23 0 -6 5 -4 10 4 5 8 10 11 10 7 0 -5 -10 -23 -22 -40 -12
-17 -16 -27 -8 -22 8 5 3 -7 -10 -25 -13 -18 -18 -30 -11 -26 8 6 7 0 -3 -16
-9 -14 -13 -28 -9 -31 3 -4 1 -7 -5 -7 -7 0 -12 -5 -12 -11 0 -5 4 -8 9 -5 5
4 4 -5 -2 -18 -7 -13 -15 -23 -18 -20 -4 2 -6 -8 -6 -22 0 -15 -7 -30 -14 -35
-12 -7 -11 -9 1 -9 12 0 12 -2 2 -9 -7 -4 -14 -17 -15 -28 -1 -14 -6 -19 -15
-15 -12 4 -12 1 -3 -15 8 -16 8 -22 -3 -26 -7 -3 -14 -17 -15 -31 -3 -49 -4
-54 -16 -49 -9 3 -11 -4 -8 -21 3 -16 1 -26 -6 -26 -6 0 -11 -5 -11 -11 0 -5
6 -7 13 -3 6 4 3 -2 -7 -14 -11 -12 -15 -22 -10 -22 5 0 0 -7 -10 -15 -11 -8
-16 -15 -12 -15 5 0 2 -8 -5 -17 -10 -11 -10 -14 -1 -9 6 4 12 2 12 -3 0 -6
-4 -11 -9 -11 -10 0 -20 -30 -27 -74 -2 -17 -9 -33 -14 -36 -6 -4 -12 -20 -13
-37 -1 -17 -5 -29 -9 -26 -5 2 -8 -7 -8 -22 0 -14 -6 -28 -14 -31 -8 -3 -13
-13 -11 -22 1 -9 -2 -20 -7 -23 -5 -3 -10 -19 -11 -36 -1 -17 -5 -29 -8 -27
-4 2 -10 -3 -13 -12 -3 -9 -2 -12 4 -9 6 4 1 -10 -10 -30 -11 -20 -16 -34 -11
-31 5 3 7 -3 4 -14 -3 -11 -9 -20 -14 -20 -5 0 -9 -9 -9 -20 0 -11 -4 -20 -8
-20 -7 0 -11 -15 -14 -57 -1 -7 -5 -10 -10 -7 -8 5 -10 -6 -11 -52 -1 -13 -6
-20 -13 -17 -8 3 -10 -5 -6 -23 3 -19 1 -25 -7 -20 -7 5 -11 -2 -11 -18 0 -14
1 -28 3 -30 1 -2 -7 -13 -17 -25 -11 -12 -15 -21 -10 -21 5 0 0 -6 -11 -12
-13 -8 -74 -11 -185 -10 -91 2 -194 2 -230 1 -36 0 -77 0 -92 0 -41 1 -43 1
-171 -2 -64 -1 -117 2 -117 7 0 5 -6 4 -12 -1 -7 -5 -31 -8 -53 -6 -22 2 -47
3 -55 3 -8 0 -100 0 -205 0 -104 0 -219 0 -255 -1 -36 0 -77 0 -92 0 -41 1
-43 1 -171 -2 -64 -1 -117 2 -117 7 0 5 -6 4 -12 -1 -7 -5 -31 -8 -53 -6 -22
2 -47 3 -55 3 -8 0 -100 0 -205 0 -104 0 -219 0 -255 -1 -36 0 -77 0 -92 0
-41 1 -43 1 -171 -2 -64 -1 -117 2 -117 7 0 5 -6 4 -12 -1 -7 -5 -31 -8 -53
-6 -22 2 -47 3 -55 3 -8 0 -100 0 -205 0 -104 0 -219 0 -255 -1 -36 0 -77 0
-92 0 -41 1 -43 1 -171 -2 -64 -1 -117 2 -117 7 0 5 -6 4 -12 -1 -7 -5 -31 -8
-53 -6 -22 2 -46 3 -52 3 -7 0 -101 -1 -208 -2 l-195 -1 0 -23 c0 -12 -6 -25
-12 -27 -10 -4 -10 -8 0 -15 11 -7 11 -10 -2 -15 -9 -4 -13 -14 -11 -27 2 -11
0 -18 -6 -15 -8 6 -13 -8 -10 -27 0 -5 -5 -8 -11 -8 -9 0 -8 -4 2 -10 10 -6
11 -10 3 -10 -7 0 -13 -11 -13 -25 0 -14 -6 -25 -12 -25 -10 0 -9 -3 1 -9 8
-5 9 -10 2 -12 -6 -2 -12 -14 -14 -26 -2 -12 -6 -26 -10 -29 -4 -4 -7 -20 -7
-36 0 -16 -4 -27 -8 -24 -4 2 -9 -10 -10 -27 -2 -17 -8 -34 -13 -38 -8 -4 -7
-8 2 -12 10 -4 9 -6 -3 -6 -11 -1 -16 -8 -13 -21 2 -11 -1 -20 -6 -20 -6 0 -7
-4 -4 -10 3 -5 0 -10 -7 -10 -9 0 -9 -3 2 -10 8 -5 10 -10 3 -10 -6 0 -10 -11
-9 -25 2 -13 -1 -22 -5 -19 -8 5 -14 -18 -10 -39 1 -4 -5 -18 -14 -30 -18 -26
-20 -51 -2 -41 6 4 4 -2 -5 -13 -10 -11 -18 -27 -18 -35 0 -9 -5 -18 -10 -20
-9 -3 -19 -41 -22 -85 -1 -7 -6 -13 -11 -13 -5 0 -7 -11 -5 -25 3 -13 1 -22
-3 -19 -5 3 -9 -5 -9 -18 0 -13 -4 -28 -9 -33 -6 -6 -12 -21 -14 -35 -2 -14
-7 -33 -11 -42 -4 -9 -9 -25 -11 -35 -2 -10 -4 -20 -5 -23 -1 -3 -2 -8 -1 -12
0 -5 -4 -8 -10 -8 -5 0 -8 -4 -5 -9 3 -5 -1 -27 -8 -49 -8 -22 -12 -43 -9 -46
4 -3 2 -6 -4 -6 -5 0 -10 -6 -11 -12 -1 -7 -3 -23 -4 -36 -2 -12 -10 -27 -18
-32 -12 -8 -12 -10 -1 -10 9 0 10 -4 4 -12 -6 -7 -9 -21 -8 -30 2 -10 -2 -16
-8 -15 -6 1 -12 -8 -13 -20 -1 -13 -3 -26 -4 -30 -1 -5 -2 -11 -1 -15 0 -5 -3
-8 -8 -8 -4 0 -8 -8 -8 -17 0 -34 -3 -44 -11 -39 -4 2 -9 -5 -9 -17 -3 -46 -8
-67 -16 -67 -4 0 -6 -3 -4 -7 3 -5 0 -19 -6 -33 -10 -25 -13 -35 -15 -58 -1
-8 -7 -10 -14 -6 -9 5 -9 2 1 -9 10 -13 10 -17 1 -17 -7 0 -10 -7 -6 -15 3 -8
1 -15 -4 -15 -5 0 -7 -7 -4 -15 4 -8 -1 -17 -10 -21 -12 -5 -13 -11 -6 -24 7
-13 6 -21 -2 -26 -7 -5 -8 -3 -3 6 5 8 4 11 -3 7 -5 -4 -9 -15 -7 -25 1 -9 -4
-27 -12 -40 -8 -13 -11 -32 -7 -44 5 -17 3 -20 -11 -14 -15 5 -16 4 -5 -9 7
-8 8 -15 3 -15 -10 0 -14 -29 -4 -31 22 -5 2051 -3 2051 2 0 3 7 6 15 6 8 0
15 -4 15 -9 0 -5 9 -4 19 2 14 7 22 7 27 -1 4 -8 9 -7 16 2 8 11 11 11 15 1 4
-10 8 -10 21 0 13 11 14 11 7 -2 -8 -13 -7 -13 8 -1 13 10 17 10 17 1 0 -9 7
-8 25 4 16 11 23 12 20 4 -6 -16 57 -19 67 -4 5 7 8 7 8 1 0 -12 40 -13 58 -1
7 4 12 2 12 -4 0 -7 6 -8 19 0 14 7 22 7 27 -1 4 -8 9 -7 16 2 8 11 11 11 15
1 4 -10 8 -10 21 0 13 11 14 11 7 -2 -8 -13 -7 -13 8 -1 12 9 17 10 17 2 0 -8
5 -9 19 -1 23 12 34 13 28 2 -6 -8 81 -8 90 1 3 4 15 1 26 -5 17 -9 19 -8 13
8 -5 16 -4 17 6 4 7 -8 20 -15 28 -15 8 0 21 7 28 15 8 8 11 10 8 3 -8 -15 10
-27 19 -13 3 5 11 10 16 10 6 0 8 -3 6 -8 -6 -9 115 -8 131 2 7 4 12 2 12 -4
0 -7 6 -8 18 -1 13 7 23 6 30 -1 8 -8 12 -9 12 -1 0 19 39 22 50 5 9 -16 9
-16 10 1 0 9 5 17 11 17 5 0 7 -4 4 -10 -3 -5 1 -10 10 -10 9 0 14 3 11 8 -2
4 16 7 40 7 29 0 48 -5 54 -15 9 -13 14 -7 11 13 0 4 3 7 9 7 5 0 10 -7 10
-16 0 -8 5 -12 10 -9 6 4 8 10 6 14 -7 11 53 4 68 -9 11 -8 16 -8 22 1 5 8 3
9 -6 4 -9 -5 -11 -4 -6 3 10 17 26 15 26 -4 0 -8 5 -12 10 -9 6 4 8 9 6 13 -2
4 11 7 31 7 19 -1 38 -7 43 -15 9 -14 14 -7 11 13 0 4 3 7 9 7 5 0 10 -7 10
-16 0 -8 5 -12 10 -9 6 4 8 10 6 14 -3 4 6 7 19 7 13 0 22 -3 19 -7 -2 -4 0
-10 6 -14 5 -3 10 1 10 9 0 10 6 13 15 10 8 -4 12 -10 9 -15 -3 -5 2 -6 10 -3
9 3 14 9 11 13 -2 4 2 8 10 8 8 0 12 -4 9 -8 -2 -4 0 -10 6 -14 5 -3 10 1 10
9 0 10 6 13 15 10 8 -4 12 -10 9 -15 -3 -5 2 -6 10 -3 9 3 14 9 11 13 -2 4 2
8 10 8 8 0 12 -4 9 -8 -2 -4 0 -10 6 -14 5 -3 10 1 10 9 0 10 6 13 15 10 8 -4
12 -10 9 -15 -3 -5 2 -6 10 -3 9 3 14 9 11 13 -2 4 2 8 10 8 8 0 12 -4 9 -8
-2 -4 0 -10 6 -14 5 -3 10 1 10 9 0 10 6 13 15 10 8 -4 12 -11 8 -18 -3 -6 3
-3 14 7 20 17 22 17 31 1 8 -15 11 -15 32 6 16 16 21 18 17 7 -3 -9 -2 -19 3
-22 6 -4 10 1 10 9 0 9 5 16 11 16 5 0 7 -4 4 -10 -3 -5 1 -10 10 -10 9 0 14
3 11 8 -2 4 11 7 30 7 20 0 39 -6 44 -15 8 -13 10 -12 10 3 0 9 5 17 11 17 5
0 7 -4 4 -10 -3 -5 1 -10 10 -10 9 0 14 3 11 8 -2 4 16 7 40 7 29 0 48 -5 54
-15 9 -13 14 -7 11 13 0 4 3 7 9 7 5 0 10 -7 10 -16 0 -8 5 -12 10 -9 6 4 8
10 6 14 -7 11 53 4 68 -9 11 -8 16 -8 22 1 5 8 3 9 -6 4 -9 -5 -11 -4 -6 3 4
7 14 12 22 12 9 0 12 -5 8 -12 -4 -6 -3 -8 4 -4 5 3 12 3 15 -1 2 -5 2 -2 1 5
-2 6 0 12 4 12 5 0 14 -6 21 -12 8 -7 11 -8 8 -3 -3 7 65 10 198 10 138 1 202
-2 198 -10 -3 -5 0 -5 7 2 7 6 19 9 26 6 8 -3 21 0 28 6 9 8 16 8 20 2 4 -6
28 -8 53 -6 28 2 53 -1 62 -8 12 -10 13 -9 7 2 -6 9 -5 12 5 9 8 -3 13 -11 11
-17 -1 -7 2 -10 8 -6 6 3 8 10 5 15 -7 11 57 6 76 -5 8 -5 10 -4 5 3 -5 9 10
11 53 9 33 -2 58 0 56 3 -6 9 28 6 44 -5 10 -6 12 -4 6 5 -6 10 -4 12 8 7 10
-3 17 -2 17 4 0 6 5 7 10 4 6 -4 8 -12 4 -18 -3 -7 0 -5 8 3 7 9 25 15 41 13
19 -1 25 2 20 10 -5 9 -3 9 8 1 16 -11 48 -11 76 1 10 5 21 9 25 9 3 1 9 4 13
8 4 4 13 4 21 1 8 -3 14 0 14 6 0 6 8 11 18 11 14 0 15 -2 2 -10 -8 -5 -10
-10 -5 -10 6 0 16 5 21 10 6 6 19 13 30 15 60 15 88 23 77 24 -7 1 -13 6 -13
12 0 5 4 8 10 4 12 -8 61 5 55 15 -2 4 7 6 20 5 14 -2 23 2 22 8 -1 6 4 11 11
12 7 0 17 6 21 14 5 8 14 10 22 6 9 -6 11 -3 6 9 -4 9 -3 15 2 11 5 -3 16 2
24 10 9 8 18 15 21 15 3 0 21 16 40 35 20 19 33 35 30 35 -4 0 8 13 25 29 17
16 31 32 31 36 0 3 7 13 15 22 8 8 13 19 10 24 -4 5 -1 9 4 9 6 0 10 6 9 13
-2 6 3 11 10 9 8 -1 11 2 8 7 -4 5 -2 12 4 16 6 4 8 10 5 15 -3 4 2 11 11 14
8 3 13 10 9 15 -3 5 -1 12 5 16 6 4 8 10 5 15 -3 4 2 10 10 14 8 3 15 16 15
30 0 14 5 28 10 31 6 3 10 14 10 24 0 9 9 27 20 39 12 12 16 22 10 22 -6 0 -3
11 6 25 8 13 13 29 9 35 -3 5 -1 10 4 10 6 0 11 9 11 20 0 11 5 20 10 20 6 0
10 10 10 23 0 13 4 27 9 33 5 5 11 23 13 39 2 18 8 29 16 27 9 -2 12 4 7 17
-3 11 -1 22 5 26 6 3 8 11 5 16 -4 5 -2 9 4 9 5 0 8 9 6 20 -3 13 2 20 12 20
11 0 13 3 5 13 -11 14 10 41 24 29 5 -4 2 1 -5 11 -10 12 -10 17 -2 17 7 0 10
4 6 9 -3 5 1 15 8 23 7 7 12 23 11 35 -1 12 3 20 7 17 8 -5 11 2 8 22 0 3 8
12 18 21 10 8 12 12 6 8 -7 -3 -13 -1 -13 4 0 6 5 11 11 11 6 0 9 6 6 14 -3 8
-1 16 4 18 5 2 11 13 12 26 0 12 5 22 9 22 4 0 8 9 8 19 0 11 5 21 11 23 6 2
12 16 12 31 1 15 5 27 8 27 3 0 11 11 17 25 9 19 9 25 -1 25 -9 0 -9 3 1 9 12
7 18 25 21 54 1 5 6 5 12 1 7 -4 9 0 5 14 -4 12 -1 26 9 36 12 12 13 16 3 16
-10 0 -10 2 1 9 8 5 10 14 6 21 -5 8 -4 11 3 6 13 -8 26 29 16 45 -4 8 -3 9 4
5 7 -4 12 -2 12 3 0 16 2 23 16 50 7 13 11 32 9 42 -2 11 0 17 4 15 4 -3 13 6
20 20 9 20 9 24 -1 18 -7 -4 -6 1 3 12 9 10 15 29 14 41 -1 18 1 20 12 11 10
-8 12 -7 8 5 -4 8 -1 18 4 22 6 3 9 11 6 16 -4 5 -1 9 5 9 6 0 9 4 6 8 -3 5 4
26 15 46 11 21 16 35 10 32 -5 -3 -7 3 -4 14 3 11 10 20 15 20 6 0 7 7 4 15
-3 9 1 18 9 21 8 4 15 17 15 31 0 17 4 22 13 17 7 -5 6 0 -3 11 -9 11 -10 16
-2 11 7 -4 12 -1 12 9 0 9 4 14 8 11 5 -3 9 1 9 9 0 8 -4 12 -9 9 -9 -6 -7 0
25 62 9 17 14 34 10 38 -3 3 -1 6 6 6 7 0 11 7 8 15 -4 8 -2 17 4 20 5 4 7 11
4 16 -4 5 2 6 12 2 10 -3 15 -3 11 2 -4 4 -2 15 5 23 9 13 9 14 0 8 -7 -4 -13
-2 -13 3 0 6 5 11 11 11 5 0 7 5 4 10 -3 6 -1 10 4 10 6 0 10 3 10 8 -3 19 2
33 10 28 5 -4 7 4 4 15 -4 14 0 26 11 35 11 8 13 14 7 19 -8 4 -6 12 5 22 8 9
13 24 11 34 -3 10 0 17 6 16 6 -1 13 9 15 23 2 14 8 30 14 35 8 7 8 6 3 -4 -5
-9 -4 -12 3 -8 5 4 8 16 5 27 -3 11 0 20 6 20 6 0 11 11 11 25 0 29 16 34 22
8 2 -10 3 -65 1 -122 -2 -75 1 -107 10 -113 7 -5 8 -8 1 -8 -13 0 -13 -168 1
-189 5 -9 4 -12 -3 -7 -6 4 -10 -1 -9 -13 0 -11 5 -17 9 -15 4 3 8 1 8 -5 0
-5 -5 -13 -10 -16 -6 -4 -8 -11 -5 -16 4 -5 0 -9 -7 -9 -7 0 -2 -7 10 -15 21
-16 21 -17 5 -43 -14 -21 -14 -24 -2 -15 12 10 15 8 15 -8 0 -10 -4 -19 -9
-19 -5 0 -3 -8 4 -17 12 -15 12 -16 -6 -10 -20 7 -20 7 -1 -8 19 -14 19 -15 1
-15 -18 0 -18 -1 1 -15 13 -10 14 -14 5 -15 -11 0 -11 -3 0 -17 12 -15 12 -16
-6 -10 -20 7 -20 7 -1 -8 20 -15 20 -15 0 -15 -15 -1 -16 -2 -4 -9 12 -8 15
-37 14 -173 -1 -89 3 -171 8 -182 7 -12 7 -16 0 -12 -9 5 -10 -32 -2 -54 2 -3
1 -9 0 -15 -7 -25 -4 -223 3 -218 4 2 7 0 7 -6 0 -5 -4 -13 -10 -16 -5 -3 -10
-12 -10 -18 0 -8 3 -8 9 1 6 11 9 9 13 -6 3 -11 1 -26 -4 -33 -8 -11 -8 -10
-4 4 3 10 2 15 -3 12 -10 -6 -8 -51 2 -61 3 -4 2 -15 -4 -25 -8 -15 -6 -19 8
-20 11 0 13 -3 6 -6 -7 -2 -13 -11 -13 -19 0 -8 -6 -14 -12 -14 -7 0 -3 -7 9
-15 18 -12 20 -20 13 -43 -4 -16 -4 -36 2 -45 5 -10 5 -17 0 -17 -12 0 -10
-53 3 -62 6 -5 5 -8 -4 -8 -10 0 -11 -3 -2 -14 8 -10 9 -16 1 -21 -6 -3 -8
-11 -4 -16 5 -9 8 -92 4 -114 -1 -5 -1 -14 0 -20 6 -30 6 -102 -2 -117 -4 -9
-4 -19 0 -22 4 -2 7 -26 7 -53 -1 -26 2 -60 6 -76 5 -16 4 -25 -2 -22 -12 8
-12 -7 1 -40 7 -17 7 -24 0 -20 -6 3 -10 -3 -10 -15 0 -13 4 -19 12 -14 7 5 8
3 2 -7 -12 -19 -11 -92 1 -101 6 -5 4 -8 -4 -8 -11 0 -10 -4 5 -16 12 -10 13
-14 4 -11 -13 4 -15 -13 -14 -114 1 -74 6 -124 13 -133 9 -10 9 -16 1 -21 -8
-5 -8 -10 0 -20 8 -9 8 -15 0 -20 -6 -3 -7 -12 -3 -18 6 -10 7 -31 4 -68 -1
-5 -7 -7 -13 -4 -7 4 -4 -1 6 -9 11 -9 15 -16 10 -16 -5 0 -10 -9 -11 -20 -1
-13 2 -18 9 -14 7 5 8 2 2 -7 -13 -21 -14 -39 -2 -39 6 0 5 -6 -2 -15 -7 -8
-8 -15 -3 -15 11 0 11 -29 0 -47 -4 -6 -3 -14 1 -17 10 -6 9 -36 -2 -54 -4 -6
-3 -12 2 -12 5 0 7 -12 5 -27 -2 -16 -4 -32 -4 -38 0 -5 2 -22 4 -37 3 -16 0
-28 -7 -28 -8 0 -8 -2 0 -8 15 -9 15 -103 0 -121 -9 -12 -8 -13 3 -6 11 6 13
3 9 -12 -3 -11 -1 -28 5 -38 6 -12 6 -16 -1 -11 -5 3 -12 -1 -16 -9 -3 -8 -1
-17 5 -20 5 -4 7 -11 4 -16 -4 -5 0 -9 7 -9 8 0 9 -3 3 -8 -13 -9 -18 -35 -5
-27 12 8 12 8 1 -33 -7 -21 -6 -32 1 -32 7 0 7 -4 -1 -13 -6 -8 -8 -24 -5 -38
10 -48 10 -78 0 -72 -6 3 -5 0 2 -8 13 -14 17 -33 4 -25 -4 2 -8 -4 -8 -14 0
-10 4 -16 8 -14 4 3 7 -6 6 -20 -1 -15 -7 -26 -13 -26 -5 0 -2 -5 8 -11 12 -7
15 -15 8 -27 -5 -9 -10 -19 -12 -22 -1 -3 3 -16 10 -29 12 -21 11 -23 -3 -18
-14 6 -15 3 -6 -13 6 -11 7 -20 3 -20 -4 0 -1 -5 7 -10 8 -5 11 -10 5 -10 -5
0 -11 -11 -11 -25 -1 -14 2 -25 7 -25 5 0 4 -11 -1 -25 -6 -16 -6 -26 1 -31 7
-4 7 -10 0 -18 -6 -7 -8 -15 -5 -18 8 -8 8 -164 0 -177 -4 -6 -3 -11 3 -11 5
0 8 -18 6 -40 -3 -30 -1 -39 8 -33 8 4 7 1 -2 -10 -7 -9 -10 -17 -6 -17 4 0 1
-8 -6 -17 -12 -14 -12 -16 0 -8 11 6 13 4 8 -7 -3 -9 0 -21 6 -28 9 -10 9 -11
0 -6 -9 5 -13 0 -13 -13 0 -10 6 -22 13 -24 9 -4 9 -6 -1 -6 -7 -1 -10 -5 -7
-11 3 -5 1 -10 -5 -10 -6 0 -8 -5 -5 -10 4 -6 9 -8 13 -6 4 2 7 -20 7 -50 0
-30 -3 -54 -7 -54 -5 0 -8 -5 -8 -11 0 -5 4 -8 8 -5 4 2 9 -5 9 -17 2 -17 0
-19 -8 -7 -7 11 -8 7 -5 -14 3 -16 7 -31 10 -34 3 -3 -2 -11 -12 -19 -15 -11
-15 -12 -1 -7 10 3 20 0 25 -7 4 -7 3 -10 -3 -6 -7 4 -12 -7 -15 -28 -3 -23 1
-36 10 -40 11 -4 12 -8 2 -20 -7 -8 -9 -15 -5 -15 4 0 1 -8 -6 -17 -8 -9 -9
-14 -3 -10 16 9 25 -18 11 -32 -8 -8 -8 -11 2 -11 7 0 9 -6 6 -12 -4 -7 0 -5
8 5 9 10 24 25 34 34 10 8 12 11 5 8 -11 -6 -11 -3 -1 13 7 12 17 18 21 16 4
-3 8 2 8 11 0 10 5 13 12 9 6 -4 8 -3 5 3 -4 6 7 25 23 43 17 19 30 40 30 48
0 9 6 12 16 8 8 -3 13 -2 9 3 -3 5 6 23 20 39 13 16 22 32 18 36 -6 5 11 10
28 8 4 -1 6 6 5 16 0 9 4 16 10 15 8 -1 10 6 6 19 -3 12 -1 19 4 16 8 -4 44
25 44 37 0 3 0 10 0 16 0 5 5 7 10 4 6 -3 10 1 10 9 0 9 5 16 11 16 6 0 9 7 6
14 -4 10 -1 13 9 9 8 -3 14 -2 13 3 -4 22 2 34 17 34 8 0 13 4 10 9 -3 5 1 12
10 15 9 4 14 9 11 12 -3 4 4 15 16 26 12 11 15 17 7 13 -8 -4 -4 3 10 14 14
11 21 21 17 21 -4 0 -2 6 5 14 7 8 16 12 20 10 4 -3 10 7 14 21 3 14 10 25 16
25 5 0 6 5 3 10 -3 5 -2 10 4 10 5 0 18 13 27 29 10 17 21 28 26 25 4 -3 8 4
8 16 0 14 4 19 12 14 8 -5 9 -2 5 9 -4 11 -1 17 8 17 8 0 15 5 15 11 0 6 7 17
15 26 8 8 12 19 9 25 -4 7 -2 8 4 4 7 -4 12 -1 12 9 0 9 4 14 9 11 5 -3 16 9
25 28 9 19 23 36 31 40 8 3 15 12 15 21 0 8 5 15 10 15 6 0 10 7 10 16 0 8 5
12 10 9 6 -3 10 0 10 8 0 8 11 26 24 40 13 14 21 28 18 31 -3 3 0 6 6 6 7 0
12 7 12 16 0 8 5 12 10 9 6 -3 10 1 10 9 0 8 8 20 18 25 9 6 13 11 8 11 -5 0
1 9 13 19 13 11 20 25 16 30 -3 6 1 11 9 11 9 0 15 6 14 13 -2 6 3 11 10 9 6
-1 12 5 12 13 0 9 7 18 16 22 13 5 13 7 2 14 -10 7 -10 9 3 9 8 0 21 16 29 35
9 24 16 31 22 23 5 -9 8 -8 8 5 0 9 8 17 18 18 11 0 12 2 4 6 -9 4 -8 10 7 22
11 10 21 23 23 31 2 8 16 25 31 38 15 14 26 31 23 38 -3 8 1 14 9 14 7 0 17 9
20 20 4 11 11 18 16 14 5 -3 9 -2 8 3 -4 21 2 33 16 33 8 0 12 6 9 13 -2 7 7
23 21 35 14 13 23 28 19 34 -5 8 -2 9 10 5 10 -4 15 -3 11 3 -3 6 -1 10 4 10
6 0 11 6 11 14 0 8 9 21 20 29 11 8 17 17 13 20 -3 4 -1 7 5 7 7 0 12 9 12 21
0 12 8 23 20 26 11 3 18 9 15 13 -3 5 10 24 29 43 19 20 32 37 30 40 -2 2 7
14 21 27 14 13 25 29 25 35 0 7 9 20 20 30 11 10 20 22 20 27 0 4 9 17 20 28
11 11 20 27 20 35 0 8 7 15 15 15 9 0 19 8 22 18 4 9 15 25 25 34 11 9 19 20
20 25 0 4 4 7 9 6 4 -2 6 3 3 10 -2 8 11 30 31 51 19 21 35 42 35 47 0 6 5 7
10 4 6 -4 10 -3 9 2 -4 22 2 43 11 38 9 -6 14 8 11 28 -1 5 3 6 9 2 5 -3 10
-1 10 5 0 6 4 8 10 5 5 -3 7 0 4 8 -3 8 2 17 11 21 9 3 14 10 11 15 -3 5 1 11
9 15 8 3 15 11 15 19 0 7 11 24 25 37 13 12 22 27 18 33 -4 6 -1 7 6 3 8 -5
14 0 18 13 3 11 9 18 14 15 5 -3 6 2 3 10 -4 11 0 16 11 16 9 0 14 4 11 9 -3
5 1 14 9 21 8 7 12 17 8 23 -3 5 -1 7 5 3 12 -7 44 33 36 46 -3 4 2 8 10 8 9
0 16 6 16 14 0 8 10 22 22 30 15 11 18 16 8 16 -9 1 -4 7 10 15 14 7 24 17 24
22 -1 4 2 7 8 5 5 -1 7 2 3 8 -3 5 -1 10 4 10 6 0 10 3 9 8 -3 14 14 42 23 36
8 -5 14 18 10 39 -1 5 3 6 8 3 11 -7 33 18 24 27 -3 4 2 7 11 7 11 0 16 5 13
13 -3 8 5 22 18 31 15 11 21 24 18 34 -4 10 -2 13 5 8 6 -3 18 7 28 23 10 17
22 27 27 24 6 -3 7 -1 3 5 -4 6 2 20 13 31 11 11 17 22 14 25 -4 3 -1 6 6 6 7
0 10 4 6 9 -3 5 4 12 15 16 11 4 18 11 15 16 -4 5 -1 9 4 9 6 0 11 7 11 15 0
8 7 15 16 15 14 0 14 3 4 15 -11 13 -10 14 4 9 12 -5 15 -2 9 12 -4 12 -3 15
5 10 7 -4 12 -2 12 3 0 6 8 11 18 11 14 0 15 2 2 10 -10 6 -11 10 -2 10 6 0
12 7 12 16 0 8 5 12 10 9 6 -3 10 1 10 9 0 9 5 16 10 16 6 0 10 9 10 21 0 15
5 19 15 15 8 -3 14 -2 13 2 -4 14 23 53 32 47 6 -3 7 1 4 9 -4 11 0 16 11 16
9 0 14 4 11 9 -8 13 4 42 15 35 5 -3 9 2 9 10 0 9 8 16 18 16 14 0 15 2 2 10
-13 8 -12 10 2 10 10 0 17 6 15 13 -1 6 4 11 11 9 8 -1 11 2 7 8 -3 5 -1 10 4
10 6 0 10 3 9 8 -5 13 30 54 40 48 6 -3 9 2 8 11 -3 19 15 43 27 36 4 -2 7 5
7 16 0 12 5 21 10 21 6 0 10 7 10 15 0 8 7 15 15 15 9 0 12 6 9 15 -4 10 0 15
11 15 9 0 14 4 11 8 -3 5 4 14 14 22 10 8 17 17 14 22 -3 4 0 8 7 8 7 0 9 3 6
7 -4 3 2 12 13 20 11 8 20 23 20 35 0 13 5 18 14 15 15 -6 33 27 27 48 -1 5 0
7 4 3 9 -8 35 14 28 25 -2 4 1 7 6 7 6 0 10 6 8 13 -1 6 4 11 10 10 7 -2 12 3
10 10 -1 6 4 11 12 9 8 -2 11 3 8 13 -4 9 -1 15 8 15 9 0 12 6 9 15 -4 8 -1
15 5 15 7 0 15 8 18 17 8 21 46 59 55 56 4 -2 5 4 2 12 -4 8 1 17 10 21 9 3
13 10 10 15 -3 5 0 9 5 9 6 0 11 6 11 13 0 16 36 47 45 39 4 -4 6 -2 5 3 -5
21 0 36 10 30 6 -4 10 6 10 22 0 22 2 25 10 13 8 -12 10 -11 10 7 0 13 9 28
20 35 11 7 20 18 20 25 0 7 5 13 11 13 5 0 7 5 3 12 -4 7 -3 8 4 4 14 -9 46
39 36 55 -4 7 -3 9 3 6 13 -8 35 17 25 29 -4 4 2 2 12 -6 12 -9 17 -10 12 -3
-9 17 12 55 26 47 6 -4 8 -3 4 4 -3 6 1 17 9 25 8 9 15 20 15 26 0 6 5 11 10
11 6 0 10 10 10 23 0 18 2 19 10 7 9 -15 11 -14 14 13 1 6 8 11 15 9 7 -1 10
2 6 8 -3 6 0 17 7 25 31 34 36 43 30 50 -4 4 0 5 8 3 8 -2 14 2 13 9 -2 8 4
10 14 6 11 -4 13 -8 5 -11 -7 -2 -10 -8 -6 -13 3 -5 0 -8 -8 -7 -8 2 -12 -4
-10 -16 2 -11 -1 -15 -7 -11 -8 4 -8 -2 -1 -21 9 -24 9 -25 -5 -14 -13 11 -14
10 -9 -3 3 -8 -3 -28 -13 -43 -13 -21 -14 -26 -3 -19 12 7 13 6 3 -7 -7 -8
-10 -18 -6 -21 3 -4 1 -7 -6 -7 -7 0 -10 -4 -6 -9 3 -5 0 -13 -6 -17 -8 -4 -7
-9 2 -15 11 -7 11 -9 -2 -9 -11 0 -15 -9 -14 -29 1 -17 -1 -29 -4 -28 -3 1 -7
-3 -9 -8 -2 -6 -10 -21 -19 -34 -11 -17 -12 -21 -2 -16 11 6 12 5 2 -6 -7 -7
-13 -24 -13 -37 0 -15 -4 -21 -11 -16 -8 5 -10 -1 -7 -20 3 -14 1 -26 -3 -26
-5 0 -12 -18 -15 -40 -4 -22 -10 -37 -15 -34 -5 3 -9 -8 -9 -24 0 -16 -6 -35
-14 -41 -8 -7 -13 -21 -11 -32 3 -12 -2 -19 -12 -19 -13 0 -13 -3 -3 -15 9
-10 9 -15 1 -15 -6 0 -11 -9 -11 -19 0 -11 -5 -23 -11 -26 -6 -4 -8 -13 -5
-21 3 -8 1 -14 -4 -14 -5 0 -7 -6 -4 -14 3 -7 -2 -21 -11 -29 -9 -9 -17 -30
-18 -47 -1 -19 -8 -30 -17 -31 -9 0 -11 -2 -3 -5 13 -6 6 -32 -13 -51 -6 -6
-10 -23 -9 -37 2 -15 -1 -24 -6 -20 -5 3 -9 -9 -9 -26 0 -20 -4 -29 -11 -25
-6 4 -10 1 -8 -6 1 -8 1 -25 0 -39 -1 -18 -4 -21 -10 -12 -6 11 -9 9 -14 -7
-2 -11 0 -22 7 -25 7 -3 7 -5 -2 -5 -7 -1 -10 -5 -7 -11 3 -5 1 -10 -5 -10 -6
0 -9 -4 -6 -9 3 -5 -1 -14 -9 -21 -12 -10 -12 -16 -4 -26 9 -11 8 -15 -4 -20
-9 -3 -13 -12 -10 -20 3 -8 0 -14 -7 -14 -6 0 -9 -4 -5 -9 3 -5 0 -13 -6 -17
-8 -4 -7 -9 2 -15 11 -6 10 -9 -4 -15 -9 -3 -17 -10 -17 -16 0 -5 6 -6 13 -2
6 4 5 -1 -4 -12 -9 -10 -14 -25 -11 -33 3 -8 0 -11 -6 -7 -7 4 -14 -7 -18 -29
-3 -19 -10 -38 -15 -40 -4 -3 -6 -12 -2 -20 3 -9 -1 -15 -8 -15 -11 0 -11 -3
1 -10 13 -8 13 -10 -2 -10 -11 0 -16 -6 -13 -20 2 -11 0 -20 -6 -20 -5 0 -8
-3 -7 -7 4 -17 -14 -73 -22 -68 -5 3 -7 -4 -5 -15 2 -11 0 -20 -5 -20 -5 0 -7
-9 -5 -20 2 -11 0 -18 -6 -15 -5 4 -9 -5 -9 -19 0 -14 -4 -27 -9 -30 -5 -4 -8
-18 -6 -32 1 -14 -3 -28 -11 -31 -7 -2 -10 -11 -7 -19 3 -8 -1 -14 -8 -14 -12
0 -12 -2 -1 -9 11 -7 11 -9 -2 -14 -9 -4 -13 -14 -11 -27 3 -16 0 -20 -11 -16
-8 3 -14 0 -13 -7 4 -36 -2 -68 -13 -61 -6 4 -8 3 -5 -3 3 -5 0 -22 -8 -37
-10 -18 -10 -24 -2 -19 8 4 7 1 -1 -10 -8 -9 -11 -20 -8 -26 3 -5 1 -11 -4
-13 -6 -2 -12 -13 -13 -26 0 -12 -4 -22 -7 -22 -7 0 -9 -10 -12 -54 -1 -14 -7
-22 -14 -19 -7 2 -11 -6 -11 -23 0 -14 -6 -30 -13 -34 -10 -6 -9 -9 0 -15 10
-6 10 -10 -1 -19 -8 -6 -15 -17 -16 -24 -2 -6 -4 -18 -5 -24 -2 -7 -7 -16 -13
-20 -6 -5 -4 -8 4 -8 11 0 10 -4 -4 -14 -11 -8 -16 -19 -12 -30 4 -9 2 -16 -4
-16 -6 0 -7 -4 -4 -10 3 -5 1 -10 -5 -10 -7 0 -9 -12 -6 -31 4 -26 2 -28 -10
-18 -8 7 -14 8 -13 3 4 -23 -2 -65 -9 -60 -7 4 -12 -17 -15 -61 0 -7 -4 -13
-8 -13 -6 0 -18 -43 -22 -83 -1 -10 -6 -16 -13 -13 -6 2 -10 -5 -10 -17 1 -12
-2 -28 -8 -36 -12 -16 -17 -41 -8 -40 4 1 9 0 12 -1 12 -4 68 -5 68 0 -1 18 4
23 11 11 5 -8 23 -15 39 -15 21 -1 27 2 21 10 -10 13 26 12 38 -1 5 -4 1 -5
-7 0 -8 5 -12 5 -8 0 12 -13 68 -12 57 1 -10 13 26 12 38 -1 5 -4 1 -5 -7 0
-8 5 -12 5 -8 0 5 -5 21 -9 37 -9 21 -1 27 3 23 14 -5 13 -3 13 12 1 20 -17
79 -22 65 -5 -10 13 26 12 38 -1 5 -4 1 -5 -7 0 -8 5 -12 5 -8 0 5 -5 21 -9
37 -9 21 -1 27 3 23 14 -4 11 0 11 15 -3 14 -13 23 -15 28 -7 5 8 11 7 23 -2
13 -11 15 -11 10 3 -4 11 0 15 13 14 10 -1 22 -5 26 -10 5 -4 3 -5 -4 -1 -6 3
-14 2 -17 -3 -4 -5 1 -8 10 -7 8 1 20 9 25 17 5 8 9 9 9 3 0 -19 28 -24 44 -9
12 12 15 12 19 1 7 -18 35 -15 48 5 5 8 9 9 9 3 0 -19 28 -24 44 -9 9 9 16 11
18 4 2 -6 16 -12 31 -13 18 -2 27 1 24 8 -5 13 58 15 70 1 5 -4 3 -5 -4 -1 -6
3 -14 2 -17 -3 -3 -5 8 -7 25 -6 17 2 35 9 40 16 5 9 9 10 9 3 0 -19 28 -24
45 -8 8 9 15 11 15 6 0 -6 7 -13 16 -16 12 -5 15 -2 10 11 -6 14 -4 14 15 -3
16 -13 21 -15 17 -4 -5 12 6 15 58 14 35 0 67 -4 71 -9 5 -4 1 -5 -7 0 -8 5
-12 4 -7 0 14 -15 47 -15 53 0 5 13 8 13 20 0 16 -15 44 -10 44 9 0 7 3 6 9
-2 10 -17 64 -24 58 -8 -5 13 58 15 70 1 5 -4 1 -5 -7 0 -8 5 -12 4 -7 0 14
-15 47 -15 53 0 5 13 8 13 20 0 16 -15 44 -10 44 9 0 7 3 6 9 -2 10 -17 64
-24 58 -8 -5 13 58 15 70 1 5 -4 1 -5 -7 0 -8 5 -12 4 -7 0 14 -15 47 -15 53
0 5 13 8 13 20 0 15 -15 44 -10 44 7 0 5 5 6 10 3 6 -4 7 -11 4 -17 -4 -7 -2
-8 5 -4 6 4 9 12 6 17 -4 5 -2 9 3 9 5 0 9 10 8 23 0 12 4 21 10 20 7 -1 9 8
6 22 -3 16 1 27 10 30 8 3 14 16 13 28 -3 29 5 42 16 26 5 -8 6 2 2 24 -4 29
-3 37 8 35 9 -2 14 5 13 20 -1 12 3 22 8 22 5 0 6 5 3 10 -3 6 -2 10 4 10 5 0
8 9 6 20 -2 11 1 20 7 20 5 0 8 7 4 15 -3 8 -1 15 5 15 6 0 8 4 4 9 -3 5 -1
12 5 16 5 3 10 17 10 31 0 18 4 23 13 18 9 -6 9 -5 -1 8 -10 12 -10 18 2 27 8
7 13 18 10 26 -3 7 0 16 7 21 8 5 10 3 4 -6 -6 -9 -4 -11 4 -6 7 5 10 11 7 14
-3 3 0 12 7 20 9 13 9 14 0 8 -9 -5 -11 -2 -7 8 3 9 10 14 15 11 4 -3 6 8 4
25 -2 17 0 28 6 25 5 -4 10 3 11 14 0 12 1 27 2 34 1 6 6 18 13 24 6 7 9 22 6
35 -5 16 -3 20 9 15 11 -4 15 0 13 11 -1 9 3 23 9 31 9 12 8 13 -4 7 -8 -4 -6
0 4 8 11 9 16 16 10 16 -5 0 0 7 10 15 11 8 15 15 8 15 -8 0 -9 7 -1 27 5 14
8 32 5 39 -3 9 1 11 12 7 9 -3 14 -3 10 2 -4 4 -1 22 6 39 7 17 11 37 9 44 -3
6 3 12 12 12 9 0 14 4 10 10 -3 5 -1 17 4 27 16 30 24 57 22 72 -1 8 2 10 10
5 9 -5 11 -1 6 15 -3 14 0 24 8 27 7 3 11 14 8 25 -3 10 -1 19 4 19 5 0 10 7
11 15 1 8 3 22 4 30 1 8 7 15 15 15 7 0 13 9 13 19 0 11 5 23 11 27 6 3 9 17
6 31 -3 18 -1 23 11 18 13 -5 13 -3 1 12 -9 11 -10 14 -1 9 8 -5 12 0 12 13 0
27 26 27 33 1 3 -13 1 -18 -5 -13 -7 4 -8 1 -2 -8 4 -8 10 -23 11 -34 2 -11 9
-24 15 -30 8 -7 9 -6 3 4 -5 9 -4 12 2 8 6 -4 9 -20 8 -37 -1 -16 1 -27 6 -25
4 3 10 1 13 -4 4 -5 2 -12 -4 -16 -6 -4 -8 -11 -4 -16 3 -5 9 -7 14 -4 5 3 7
-4 5 -15 -2 -12 2 -23 10 -27 8 -3 12 -9 10 -14 -3 -5 2 -23 12 -41 9 -18 16
-37 15 -41 -1 -4 4 -10 12 -13 8 -3 12 -13 8 -26 -3 -14 -1 -19 6 -14 8 5 12
-1 12 -16 0 -13 7 -32 15 -42 8 -10 12 -23 8 -29 -3 -6 -1 -7 5 -3 7 4 12 2
12 -4 0 -6 7 -18 15 -27 8 -8 13 -19 10 -24 -4 -5 -1 -9 5 -9 6 0 8 -4 5 -10
-3 -5 -3 -10 2 -10 4 0 17 -12 27 -27 13 -17 14 -24 5 -19 -8 4 0 -5 16 -20
17 -15 29 -31 28 -36 -2 -4 7 -20 20 -34 12 -14 22 -31 22 -37 1 -7 6 -11 13
-9 7 1 12 -7 12 -19 0 -15 5 -19 15 -15 8 3 14 2 13 -2 -3 -16 15 -42 31 -42
14 0 14 -2 1 -10 -14 -9 -7 -15 14 -11 5 1 6 -5 2 -14 -3 -9 -2 -14 2 -12 9 6
33 -19 25 -27 -4 -3 -1 -6 6 -6 16 0 42 -26 34 -34 -4 -3 1 -6 10 -6 10 0 17
-4 17 -8 0 -16 40 -56 41 -41 0 8 4 4 9 -8 5 -12 32 -39 60 -59 27 -20 50 -40
50 -45 0 -5 3 -8 8 -7 4 2 8 -1 8 -7 1 -5 18 -17 39 -26 20 -9 37 -20 38 -25
1 -5 8 -8 15 -8 6 1 12 -4 12 -12 0 -8 5 -14 11 -14 7 0 18 -8 26 -17 8 -11
11 -12 7 -3 -7 12 -5 13 8 3 8 -7 19 -9 23 -5 5 4 5 1 1 -5 -5 -9 -1 -13 11
-13 15 0 16 -2 3 -10 -12 -8 -11 -10 8 -10 12 0 25 0 28 1 3 0 14 -9 24 -21
10 -12 21 -21 24 -21 24 3 36 -1 31 -9 -3 -5 3 -10 14 -10 12 0 21 -5 21 -10
0 -6 3 -9 8 -9 19 3 33 -2 27 -11 -3 -5 0 -7 8 -5 7 3 23 -3 36 -14 12 -11 29
-17 38 -14 8 3 19 0 23 -7 4 -7 18 -13 31 -14 13 0 24 -6 24 -13 0 -6 4 -15 9
-20 5 -5 6 -3 2 5 -4 6 -2 12 3 12 6 0 11 -4 11 -8 0 -4 9 -9 20 -10 11 -1 29
-3 40 -4 11 -1 20 -6 20 -11 0 -4 5 -5 10 -2 5 3 10 2 10 -4 0 -5 9 -8 20 -6
11 2 20 -1 20 -7 0 -5 7 -8 15 -4 8 3 15 2 15 -2 0 -4 10 -8 22 -9 11 -1 24
-7 28 -14 5 -7 10 -8 14 -1 4 7 15 6 32 -3 15 -7 33 -11 42 -8 11 5 13 2 7 -6
-6 -10 -3 -11 13 -2 26 14 42 14 22 0 -12 -8 -7 -9 18 -6 24 3 32 0 32 -12 0
-14 1 -14 10 -1 6 10 10 11 10 3 0 -7 5 -13 11 -13 5 0 7 6 3 13 -6 9 -3 8 8
-1 9 -7 41 -15 70 -17 29 -3 68 -9 86 -14 21 -6 32 -6 32 0 0 6 6 7 13 2 17
-10 60 -11 74 -1 7 6 14 4 19 -3 5 -8 3 -9 -6 -4 -9 5 -11 4 -6 -4 6 -9 11 -9
22 0 10 8 14 8 14 0 0 -6 5 -11 11 -11 5 0 7 5 3 11 -4 8 -1 8 12 1 11 -5 28
-6 39 -2 11 4 26 3 34 -4 11 -8 15 -8 19 2 3 10 7 10 17 2 10 -8 19 -8 34 -1
14 8 22 8 27 -1 5 -7 3 -8 -6 -3 -8 5 -11 4 -6 -3 4 -6 13 -9 21 -6 8 4 12 11
8 18 -4 6 1 5 10 -3 11 -9 17 -10 17 -2 0 8 6 7 20 -1 17 -11 22 -10 30 2 7
11 10 11 10 2 0 -10 5 -10 21 -1 16 8 20 8 14 0 -5 -8 2 -10 22 -5 15 4 30 8
32 10 2 2 13 -2 25 -8 20 -11 20 -10 6 7 -9 11 -10 16 -2 11 22 -13 60 -17 67
-6 4 6 12 7 18 3 16 -10 47 -11 53 -2 2 4 13 6 24 4 11 -2 20 1 20 6 0 6 8 5
21 -2 13 -7 19 -7 15 -1 -4 7 4 9 21 8 16 -2 34 1 41 6 7 7 12 7 12 1 0 -12
36 -10 47 2 5 4 2 5 -6 0 -10 -6 -12 -4 -7 4 6 9 11 9 22 0 11 -9 14 -9 14 0
0 7 8 11 18 10 39 -4 63 1 56 12 -5 8 -1 8 13 0 11 -5 24 -6 29 -1 5 4 23 10
39 11 17 2 35 7 42 12 7 5 17 6 23 2 6 -3 24 0 40 9 17 8 28 10 25 5 -4 -5 -2
-9 3 -9 6 0 12 6 15 13 3 8 16 13 29 12 12 -1 32 2 43 8 10 5 32 11 48 11 15
1 32 7 36 15 6 10 10 10 16 2 5 -9 14 -7 33 5 14 9 35 19 47 20 21 4 57 11 65
14 3 1 9 2 14 1 4 -1 15 6 23 16 8 10 12 12 8 6 -3 -7 -2 -13 4 -13 5 0 11 5
13 11 2 6 16 12 31 12 15 0 30 3 33 8 3 5 14 9 25 9 10 0 19 4 19 9 0 6 9 8
20 6 11 -2 20 0 20 5 0 5 7 7 15 4 8 -4 15 -1 15 5 0 6 12 11 26 11 14 0 23 4
19 10 -3 6 -1 10 4 10 6 0 11 -5 11 -10 0 -6 10 -2 22 10 12 11 34 20 49 20
15 0 29 6 32 13 3 8 18 13 36 12 25 -1 29 1 19 12 -9 11 -7 12 7 7 14 -6 16
-4 10 7 -6 11 -5 12 5 2 11 -10 19 -8 39 10 13 12 21 16 17 10 -5 -9 -2 -11 8
-7 9 3 16 11 16 16 0 6 7 8 15 4 8 -3 21 1 29 9 8 8 22 15 31 15 9 0 14 4 10
9 -3 6 3 8 14 6 11 -2 22 3 25 11 3 9 10 12 16 9 5 -3 10 -1 10 5 0 7 7 10 15
6 8 -3 15 -1 15 5 0 6 5 7 10 4 6 -3 13 1 16 9 3 9 15 16 26 16 10 0 16 5 13
10 -5 9 24 15 48 11 5 -1 6 3 2 9 -3 5 1 11 9 11 30 3 34 4 43 13 5 5 2 6 -7
1 -11 -6 -12 -5 -5 3 6 6 22 13 35 16 14 2 24 9 22 15 -1 6 1 10 5 9 15 -3 63
14 63 23 0 5 5 9 11 9 6 0 17 7 25 15 9 8 24 15 34 15 10 0 28 12 39 26 12 16
21 21 21 13 1 -10 4 -8 11 4 6 9 14 15 20 12 5 -4 12 1 15 9 3 9 10 13 15 10
5 -3 9 0 9 5 0 6 7 11 16 11 8 0 12 5 9 10 -3 6 5 10 19 10 20 0 24 4 19 17
-4 10 -2 14 5 9 6 -3 21 4 33 16 12 13 19 16 15 8 -6 -12 -4 -11 6 1 7 9 18
18 23 20 6 2 9 7 7 12 -1 4 6 7 17 7 10 0 24 7 31 15 7 8 19 15 26 15 8 0 14
7 14 16 0 8 5 12 10 9 6 -3 10 1 10 9 0 9 6 13 13 10 8 -3 31 12 52 33 21 21
35 32 31 26 -4 -7 -3 -13 3 -13 5 0 13 9 16 20 4 11 10 18 14 16 4 -3 20 8 35
25 15 16 33 26 39 22 6 -4 8 0 4 10 -4 12 -1 17 10 17 8 0 24 9 34 21 11 12
23 18 30 13 9 -5 10 -2 6 9 -3 10 -2 17 4 17 10 0 24 10 62 45 12 11 28 18 36
17 13 -3 13 -1 1 13 -7 9 -9 15 -4 14 16 -2 54 13 49 20 -2 4 6 14 17 22 32
21 75 63 78 74 3 15 10 20 10 6 0 -7 4 -10 10 -6 5 3 7 12 4 20 -4 10 0 13 15
10 13 -2 18 1 15 10 -3 7 0 16 7 21 8 5 10 3 4 -7 -8 -12 -6 -12 8 0 9 7 14
17 11 22 -3 5 2 9 11 9 9 0 13 5 10 10 -6 9 8 14 28 11 4 0 6 3 5 8 -2 5 19
29 45 55 26 26 45 51 42 56 -3 4 5 6 17 2 14 -3 19 -2 14 6 -4 7 0 15 8 18 9
3 13 10 10 15 -3 5 2 9 11 9 9 0 13 5 10 10 -3 6 1 10 9 10 9 0 15 6 14 13 -2
6 3 11 10 9 11 -2 16 10 13 31 0 4 2 6 6 6 20 -3 34 2 28 11 -3 6 -2 10 3 10
5 0 14 10 20 23 6 12 11 16 11 9 1 -10 4 -10 16 2 8 8 15 19 15 25 0 6 8 11
18 11 14 0 15 2 2 10 -13 9 -7 14 12 11 4 0 10 10 14 23 3 14 12 27 20 30 10
4 12 2 8 -6 -4 -7 -3 -8 4 -4 7 4 12 14 12 22 0 8 5 14 12 14 6 0 9 3 5 6 -8
8 18 34 33 34 6 0 9 4 5 9 -6 10 52 75 75 84 11 4 11 6 2 6 -8 1 5 19 27 41
23 23 41 45 41 51 0 6 5 7 12 3 6 -4 8 -3 5 3 -6 10 22 51 62 90 13 13 21 23
17 23 -3 0 2 8 12 18 9 11 20 17 24 15 4 -2 5 3 2 11 -4 11 0 16 12 16 15 0
16 2 5 9 -11 7 -9 10 8 16 12 3 19 11 16 16 -4 5 1 12 9 15 9 3 13 10 10 15
-3 5 2 12 10 15 9 3 16 13 16 21 0 8 5 11 12 7 7 -5 9 -2 6 8 -4 9 4 22 18 33
13 10 24 22 24 28 0 5 10 18 22 28 14 13 17 19 7 19 -8 1 -4 6 9 13 12 7 20
16 16 20 -4 3 1 9 10 13 9 3 16 11 16 18 0 6 9 19 20 29 21 18 28 9 8 -11 -9
-9 -9 -12 0 -12 7 0 12 -5 12 -11 0 -5 -6 -7 -12 -3 -10 6 -10 4 0 -7 6 -7 12
-17 12 -22 0 -4 -6 -5 -12 -1 -8 5 -7 0 2 -11 9 -11 10 -16 3 -11 -7 4 -13 2
-13 -3 0 -6 5 -11 10 -11 6 0 10 -10 10 -22 0 -19 -2 -20 -10 -8 -6 9 -10 10
-10 3 0 -6 5 -15 10 -18 8 -5 7 -11 -1 -21 -8 -10 -8 -14 0 -14 6 0 11 -5 11
-11 0 -5 -6 -7 -12 -3 -10 6 -10 4 0 -7 6 -7 12 -20 12 -29 0 -13 -1 -13 -10
0 -6 9 -10 10 -10 3 0 -6 5 -15 10 -18 6 -3 10 -18 10 -33 0 -21 -2 -24 -10
-12 -6 9 -10 10 -10 3 0 -6 5 -15 10 -18 8 -5 7 -11 -1 -21 -8 -10 -8 -14 0
-14 6 0 11 -5 11 -11 0 -5 -6 -7 -12 -3 -10 6 -10 4 0 -7 6 -7 12 -20 12 -29
0 -13 -1 -13 -10 0 -6 9 -10 10 -10 3 0 -6 5 -15 10 -18 6 -3 10 -18 10 -33 0
-21 -2 -24 -10 -12 -6 9 -10 10 -10 3 0 -6 5 -15 10 -18 8 -5 7 -11 -1 -21 -8
-10 -8 -14 0 -14 6 0 11 -5 11 -11 0 -5 -6 -7 -12 -3 -10 6 -10 4 0 -7 14 -15
17 -33 4 -25 -5 3 -9 -1 -9 -9 0 -8 4 -12 9 -9 11 7 10 -3 -3 -28 -8 -15 -8
-19 0 -14 14 9 14 -7 0 -21 -8 -8 -8 -13 0 -17 6 -4 11 -19 11 -34 0 -21 -2
-24 -10 -12 -6 9 -10 10 -10 3 0 -6 5 -15 10 -18 8 -5 7 -11 -1 -21 -8 -10 -8
-14 0 -14 6 0 11 -5 11 -11 0 -5 -6 -7 -12 -3 -10 6 -10 4 0 -7 14 -15 17 -33
4 -25 -5 3 -9 -1 -9 -9 0 -8 4 -12 9 -9 11 7 10 -3 -3 -28 -6 -11 -7 -18 -2
-15 6 4 10 -8 11 -25 1 -24 -2 -28 -8 -18 -6 9 -10 10 -10 3 0 -6 5 -15 10
-18 8 -5 7 -11 -1 -21 -8 -10 -8 -14 0 -14 6 0 11 -10 11 -22 0 -19 -2 -20
-10 -8 -6 9 -10 10 -10 3 0 -6 5 -15 10 -18 8 -5 7 -11 -1 -21 -9 -11 -9 -14
1 -14 9 0 9 -4 -1 -17 -10 -11 -10 -14 -1 -9 15 9 15 1 1 -26 -8 -15 -8 -19 0
-14 14 9 14 -7 0 -21 -8 -8 -8 -13 0 -17 6 -4 11 -19 11 -34 0 -21 -2 -24 -10
-12 -6 9 -10 10 -10 3 0 -6 5 -15 10 -18 8 -5 7 -11 -1 -21 -8 -10 -8 -14 0
-14 6 0 11 -5 11 -11 0 -5 -6 -7 -12 -3 -10 6 -10 4 0 -7 14 -15 17 -33 4 -25
-5 3 -9 -1 -9 -9 0 -8 4 -12 9 -9 11 7 10 -3 -3 -28 -6 -11 -7 -18 -2 -15 6 4
10 -8 11 -25 1 -24 -2 -28 -8 -18 -6 9 -10 10 -10 3 0 -6 5 -15 10 -18 8 -5 7
-11 -1 -21 -8 -10 -8 -14 0 -14 6 0 11 -10 11 -22 0 -19 -2 -20 -10 -8 -6 9
-10 10 -10 3 0 -6 5 -15 10 -18 8 -5 7 -11 -1 -21 -9 -11 -9 -14 1 -14 9 0 9
-4 -1 -17 -10 -11 -10 -14 -1 -9 15 9 15 1 1 -26 -8 -15 -8 -19 0 -14 14 9 14
-7 0 -21 -8 -8 -8 -13 0 -17 6 -4 11 -19 11 -34 0 -21 -2 -24 -10 -12 -6 9
-10 10 -10 3 0 -6 5 -15 10 -18 8 -5 7 -11 -1 -21 -8 -10 -8 -14 0 -14 6 0 11
-5 11 -11 0 -5 -6 -7 -12 -3 -10 6 -10 4 0 -7 14 -15 17 -33 4 -25 -5 3 -9 -1
-9 -9 0 -8 4 -12 9 -9 11 7 10 -3 -3 -28 -8 -15 -8 -19 0 -14 14 9 14 -7 0
-21 -8 -8 -8 -13 0 -17 6 -4 11 -19 11 -34 0 -21 -2 -24 -10 -12 -6 9 -10 10
-10 3 0 -6 5 -15 10 -18 8 -5 7 -11 -1 -21 -8 -10 -8 -14 0 -14 6 0 11 -5 11
-11 0 -5 -6 -7 -12 -3 -10 6 -10 4 0 -7 6 -7 12 -20 12 -28 0 -14 -1 -14 -10
-1 -6 9 -10 10 -10 3 0 -6 5 -15 10 -18 5 -3 10 -18 10 -33 0 -21 -2 -24 -10
-12 -6 9 -10 10 -10 3 0 -6 5 -15 10 -18 8 -5 7 -11 -1 -21 -8 -10 -8 -14 0
-14 6 0 11 -5 11 -11 0 -5 -6 -7 -12 -3 -10 6 -10 4 0 -7 6 -7 12 -20 12 -28
0 -14 -1 -14 -10 -1 -6 9 -10 10 -10 3 0 -6 5 -15 10 -18 5 -3 10 -18 10 -33
0 -21 -2 -24 -10 -12 -6 9 -10 10 -10 3 0 -6 5 -15 10 -18 8 -5 7 -11 -1 -21
-8 -10 -8 -14 0 -14 6 0 11 -5 11 -11 0 -5 -6 -7 -12 -3 -10 6 -10 4 0 -7 6
-7 12 -20 12 -28 0 -14 -1 -14 -10 -1 -6 9 -10 10 -10 3 0 -6 5 -15 10 -18 6
-3 10 -18 10 -33 0 -21 -2 -24 -10 -12 -6 9 -10 10 -10 3 0 -6 5 -15 10 -18 8
-5 7 -11 -1 -21 -8 -10 -8 -14 0 -14 6 0 11 -5 11 -11 0 -5 -6 -7 -12 -3 -10
6 -10 4 0 -7 6 -7 12 -20 12 -28 0 -14 -1 -14 -10 -1 -6 9 -10 10 -10 3 0 -6
5 -15 10 -18 6 -3 10 -18 10 -33 0 -21 -2 -24 -10 -12 -6 9 -10 10 -10 3 0 -6
5 -15 10 -18 8 -5 7 -11 -1 -21 -8 -10 -8 -14 0 -14 6 0 11 -5 11 -11 0 -5 -6
-7 -12 -3 -10 6 -10 4 0 -7 6 -7 12 -20 12 -28 0 -14 -1 -14 -10 -1 -6 9 -10
10 -10 3 0 -6 5 -15 10 -18 6 -3 10 -18 10 -33 0 -21 -2 -24 -10 -12 -6 9 -10
10 -10 3 0 -6 5 -15 10 -18 8 -5 7 -11 -1 -21 -8 -10 -8 -14 0 -14 6 0 11 -5
11 -11 0 -5 -6 -7 -12 -3 -10 6 -10 4 0 -7 6 -7 12 -20 12 -28 0 -14 -1 -14
-10 -1 -6 9 -10 10 -10 3 0 -6 5 -15 10 -18 6 -3 10 -18 10 -33 0 -21 -2 -24
-10 -12 -6 9 -10 10 -10 3 0 -6 5 -15 10 -18 8 -5 7 -11 -1 -21 -8 -10 -8 -14
0 -14 6 0 11 -5 11 -11 0 -5 -6 -7 -12 -3 -10 6 -10 4 0 -7 6 -7 12 -20 12
-28 0 -14 -1 -14 -10 -1 -6 9 -10 10 -10 3 0 -6 5 -15 10 -18 5 -3 10 -18 10
-33 0 -21 -2 -24 -10 -12 -6 9 -10 10 -10 3 0 -6 5 -15 10 -18 8 -5 7 -11 -1
-21 -8 -10 -8 -14 0 -14 6 0 11 -5 11 -11 0 -5 -6 -7 -12 -3 -10 6 -10 4 0 -7
14 -15 17 -33 4 -25 -5 3 -9 -1 -9 -9 0 -8 4 -12 9 -9 11 7 10 -3 -3 -28 -8
-15 -8 -19 0 -14 14 9 14 -7 0 -21 -8 -8 -8 -13 0 -17 6 -4 11 -19 11 -34 0
-21 -2 -24 -10 -12 -6 9 -10 10 -10 3 0 -6 5 -15 10 -18 8 -5 7 -11 -1 -21 -8
-10 -8 -14 0 -14 6 0 11 -5 11 -11 0 -5 -6 -7 -12 -3 -10 6 -10 4 0 -7 14 -15
17 -33 4 -25 -5 3 -9 -1 -9 -9 0 -8 4 -12 9 -9 11 7 10 -3 -3 -28 -6 -11 -7
-18 -2 -15 6 4 10 -8 11 -25 1 -24 -2 -28 -8 -18 -6 9 -10 10 -10 3 0 -6 5
-15 10 -18 8 -5 7 -11 -1 -21 -8 -10 -8 -14 0 -14 6 0 11 -10 11 -22 0 -19 -2
-20 -10 -8 -6 9 -10 10 -10 3 0 -6 5 -15 10 -18 8 -5 7 -11 -1 -21 -9 -11 -9
-14 1 -14 9 0 9 -4 -1 -17 -10 -11 -10 -14 -1 -9 15 9 15 1 1 -26 -8 -15 -8
-19 0 -14 14 9 14 -7 0 -21 -8 -8 -8 -13 0 -17 6 -4 11 -19 11 -34 0 -21 -2
-24 -10 -12 -6 9 -10 10 -10 3 0 -6 5 -15 10 -18 8 -5 7 -11 -1 -21 -8 -10 -8
-14 0 -14 6 0 11 -5 11 -11 0 -5 -6 -7 -12 -3 -10 6 -10 4 0 -7 14 -15 17 -33
4 -25 -5 3 -9 -1 -9 -9 0 -8 4 -12 9 -9 11 7 10 -3 -3 -28 -6 -11 -7 -18 -2
-15 6 4 10 -8 11 -25 1 -24 -2 -28 -8 -18 -6 9 -10 10 -10 3 0 -6 5 -15 10
-18 8 -5 7 -11 -1 -21 -8 -10 -8 -14 0 -14 6 0 11 -10 11 -22 0 -19 -2 -20
-10 -8 -6 9 -10 10 -10 3 0 -6 5 -15 10 -18 8 -5 7 -11 -1 -21 -8 -10 -8 -14
0 -14 6 0 11 -5 11 -11 0 -5 -4 -8 -8 -5 -5 3 -9 -1 -9 -9 0 -8 4 -12 9 -9 11
7 10 -3 -3 -28 -9 -17 -9 -20 4 -15 10 4 13 0 10 -13 -7 -28 13 -32 27 -5 7
14 17 25 22 25 5 0 6 5 3 10 -3 6 1 10 10 10 9 0 13 5 10 10 -3 6 2 10 12 11
10 0 13 3 5 6 -8 3 0 17 23 39 19 18 35 37 35 41 0 5 11 21 26 36 14 15 22 32
19 37 -3 6 -1 11 4 11 6 1 15 2 20 3 5 0 13 5 18 10 5 5 3 6 -4 2 -20 -11 -15
8 6 26 11 9 23 13 27 10 4 -4 4 -2 1 5 -9 15 2 45 14 37 5 -3 9 1 9 9 0 8 7
17 15 21 8 3 15 12 15 21 0 8 4 15 9 15 6 0 18 13 27 29 10 17 21 28 26 25 4
-3 5 1 2 9 -3 9 4 21 15 29 12 8 18 18 14 21 -3 4 -1 7 6 7 7 0 17 13 22 30 6
16 14 28 19 25 4 -3 13 9 20 25 7 17 20 30 29 30 14 0 14 2 1 10 -11 7 -12 10
-2 10 19 0 44 28 37 40 -3 5 1 10 9 10 9 0 16 7 16 15 0 8 5 15 10 15 6 0 10
6 10 13 0 7 11 21 25 31 13 10 34 37 46 59 11 23 30 48 40 55 11 7 17 17 14
22 -3 5 4 11 15 15 13 4 20 15 20 31 0 14 4 22 10 19 9 -6 14 8 11 28 -1 5 2
6 6 4 5 -2 19 7 33 21 14 13 18 21 10 18 -8 -4 -5 1 7 12 12 11 19 22 16 26
-4 3 -1 6 5 6 7 0 12 7 12 16 0 9 9 18 21 21 16 4 17 8 7 14 -10 7 -11 9 0 9
7 0 10 5 6 12 -4 6 -3 8 3 5 8 -5 51 33 45 40 -5 8 12 32 19 27 5 -3 9 2 9 10
0 9 8 16 18 17 9 0 12 3 5 6 -10 3 -10 7 0 18 7 7 15 11 18 9 4 -2 10 7 13 21
4 14 11 25 17 25 6 0 7 5 4 10 -3 6 -1 10 5 10 6 0 15 11 22 25 6 13 14 22 18
20 11 -7 21 24 13 38 -3 7 -3 9 2 5 12 -11 73 66 67 85 -1 5 2 5 8 2 7 -4 14
2 17 14 3 12 10 21 15 21 5 0 6 5 3 10 -3 5 -2 10 2 10 5 0 18 7 29 16 10 8
13 13 7 9 -9 -4 -11 -1 -7 9 3 9 13 16 21 16 8 0 13 5 11 12 -3 7 6 22 19 34
13 12 23 26 23 33 0 6 4 11 8 11 5 0 14 12 20 26 7 15 17 22 24 18 6 -4 8 -3
4 4 -3 6 -2 13 4 17 6 4 8 11 5 16 -4 5 3 9 14 9 14 0 19 5 15 15 -4 8 1 17
10 21 9 3 13 10 10 15 -3 5 0 9 5 9 6 0 11 7 11 16 0 8 5 12 10 9 6 -3 14 5
20 20 5 14 16 28 25 31 8 3 12 10 9 15 -3 5 2 12 10 15 9 3 13 10 10 15 -3 5
0 9 6 9 6 0 8 5 5 10 -3 6 -1 10 5 10 6 0 8 5 4 12 -5 8 -2 9 9 5 11 -4 17 -1
17 8 0 8 4 15 10 15 5 0 9 3 9 8 -3 19 2 33 11 27 6 -3 10 1 10 9 0 9 5 16 10
16 6 0 10 6 10 13 0 7 9 19 20 27 11 8 20 19 20 25 1 5 14 26 30 45 17 19 30
40 30 47 0 7 7 13 15 13 8 0 14 6 12 13 -1 6 4 11 11 9 8 -1 11 2 7 8 -3 5 1
13 10 16 13 6 14 8 3 15 -10 7 -9 9 5 9 9 0 17 6 17 14 0 8 13 26 30 39 19 16
25 27 17 30 -7 3 -5 6 5 6 10 1 17 7 15 14 -1 6 4 11 12 9 8 -2 11 3 8 13 -4
8 -2 15 4 15 6 0 7 5 4 10 -3 6 -1 10 5 10 6 0 21 9 33 21 20 19 21 20 2 13
-14 -5 -12 -1 8 16 15 12 26 24 23 27 -7 7 38 48 48 45 5 -2 4 4 -4 12 -10 13
-10 16 4 16 9 0 24 16 33 35 9 19 20 32 25 29 4 -3 8 3 8 13 0 10 9 24 20 30
11 7 27 27 36 45 9 18 23 37 30 41 8 4 14 15 14 22 0 8 7 15 15 15 8 0 15 9
15 20 0 11 5 20 10 20 6 0 10 7 10 16 0 8 5 12 10 9 6 -3 10 2 10 12 0 10 9
24 20 31 12 7 18 17 15 22 -3 5 -1 11 5 15 5 3 10 0 11 -7 0 -7 4 -4 8 7 5 11
8 22 7 25 0 3 13 19 29 35 18 18 29 38 27 50 -3 16 -1 17 7 5 9 -13 11 -13 11
2 0 9 8 22 18 27 9 6 13 11 9 11 -12 0 20 30 32 30 6 0 8 7 5 15 -4 8 -1 15 5
15 6 0 10 5 8 12 -1 7 5 12 13 13 8 0 15 7 15 15 0 8 11 26 25 39 14 13 24 27
23 32 -2 5 2 9 9 9 6 0 9 3 5 6 -3 4 7 20 23 36 17 16 30 34 30 39 0 6 6 7 13
3 7 -5 6 0 -3 11 -9 11 -10 16 -3 11 8 -4 17 2 24 18 7 14 16 23 20 20 5 -3 9
4 9 14 0 11 12 27 26 37 15 10 23 22 20 31 -3 8 -2 13 3 10 5 -3 15 2 22 11
12 14 12 16 -1 9 -8 -4 -7 -1 4 8 11 9 15 20 10 28 -5 9 -2 8 11 -2 11 -9 16
-10 11 -2 -4 7 -1 14 8 18 8 3 12 12 9 20 -3 9 0 14 8 12 8 -2 13 3 11 10 -1
7 5 15 13 18 8 4 15 12 15 20 0 7 11 21 25 30 14 9 25 22 25 29 0 6 11 25 24
40 14 16 23 32 20 36 -2 4 5 10 16 14 11 4 18 11 15 16 -4 5 -1 9 4 9 6 0 11
5 11 10 0 6 9 19 20 30 12 12 18 26 14 32 -5 7 -3 8 5 4 8 -5 14 0 18 13 3 11
9 18 14 15 5 -3 9 2 9 11 0 8 7 18 15 21 8 4 12 10 9 15 -3 5 0 9 6 9 6 0 8 5
4 12 -5 7 -2 9 9 5 11 -4 14 -2 10 8 -3 8 2 18 11 21 9 3 13 10 10 15 -3 5 0
9 6 9 6 0 14 8 17 17 6 16 13 25 61 78 12 14 20 25 17 25 -3 0 3 8 13 18 9 11
22 16 27 13 6 -2 4 3 -4 12 -12 15 -11 17 4 17 10 0 15 3 12 7 -4 3 2 12 13
20 11 8 20 20 20 28 0 8 8 19 18 24 9 6 13 11 9 11 -4 0 -2 6 5 14 7 8 16 12
21 9 4 -2 7 3 7 11 0 9 5 16 11 16 5 0 7 5 4 10 -3 6 -1 10 6 10 7 0 10 3 6 6
-9 9 25 44 36 37 6 -4 8 1 4 10 -3 10 -2 17 3 17 6 0 10 7 10 16 0 10 5 14 16
10 8 -3 12 -2 9 4 -8 12 19 53 28 43 4 -3 7 4 7 16 0 12 4 19 10 16 6 -3 10
-1 10 5 0 6 5 8 13 4 9 -6 9 -5 0 7 -10 12 -8 17 8 27 10 7 19 19 19 28 0 8 5
12 10 9 6 -3 10 1 10 10 0 11 5 15 16 11 9 -3 12 -2 8 5 -3 6 4 21 17 35 12
13 19 24 15 24 -4 0 -1 6 6 14 7 8 18 11 23 8 6 -3 3 3 -5 13 -8 10 -10 16 -4
12 6 -3 20 1 30 9 10 9 13 13 7 9 -7 -3 -13 -1 -13 4 0 6 7 11 16 11 8 0 13 4
10 8 -3 5 4 15 15 22 10 8 19 23 19 33 0 13 5 17 16 13 8 -3 12 -2 9 3 -3 5
-1 12 5 16 6 4 8 11 5 16 -4 5 1 9 9 9 8 0 18 9 21 20 4 11 11 17 17 14 7 -5
9 -1 5 9 -4 11 -1 17 7 17 8 0 16 3 19 8 2 4 2 0 -1 -8 -2 -8 -6 -24 -7 -35
-1 -11 -7 -19 -12 -18 -5 1 -8 -14 -8 -34 1 -19 -5 -41 -13 -49 -8 -8 -11 -22
-8 -30 4 -11 2 -15 -6 -11 -8 2 -14 -4 -15 -17 -3 -30 -8 -50 -14 -61 -4 -5
-5 -20 -4 -32 1 -12 -3 -19 -10 -17 -7 3 -12 -7 -12 -26 0 -18 -6 -36 -14 -41
-12 -7 -12 -9 1 -9 13 0 13 -2 1 -9 -8 -5 -12 -18 -8 -30 3 -12 1 -19 -4 -15
-9 5 -12 -4 -12 -38 0 -10 -7 -18 -16 -18 -14 0 -14 -2 -1 -10 10 -6 11 -10 3
-10 -7 0 -13 -9 -13 -19 0 -11 -5 -23 -10 -26 -6 -4 -8 -15 -5 -25 3 -10 0
-20 -8 -23 -9 -3 -13 -16 -12 -31 2 -14 0 -26 -5 -26 -5 0 -11 -18 -15 -40 -4
-22 -10 -42 -15 -45 -4 -3 -7 -18 -6 -34 1 -16 -3 -29 -8 -28 -6 1 -12 -13
-14 -32 -2 -19 -11 -45 -20 -59 -9 -14 -17 -36 -18 -50 0 -13 -7 -28 -15 -33
-12 -7 -12 -9 1 -9 11 0 11 -3 2 -12 -7 -7 -12 -22 -12 -35 0 -13 -4 -23 -10
-23 -5 0 -10 -12 -10 -26 0 -14 -4 -23 -8 -20 -8 4 -12 -15 -15 -61 0 -12 -5
-19 -9 -17 -4 3 -8 -9 -8 -26 0 -17 -4 -29 -9 -26 -4 3 -8 -5 -7 -17 1 -12 -5
-28 -14 -35 -13 -12 -12 -13 5 -8 19 6 19 5 3 -8 -10 -7 -18 -23 -18 -35 0
-12 -4 -20 -8 -17 -4 2 -9 -7 -10 -22 -1 -14 -7 -31 -12 -36 -6 -6 -10 -23
-10 -38 0 -15 -5 -28 -11 -28 -6 0 -9 -6 -6 -14 3 -7 -1 -26 -9 -42 -8 -15
-12 -34 -10 -41 3 -8 -1 -16 -8 -19 -8 -3 -13 -14 -11 -25 2 -10 -4 -23 -13
-29 -16 -9 -16 -9 1 -10 10 0 15 -5 12 -10 -4 -6 -11 -8 -16 -5 -5 4 -9 -5 -9
-19 0 -14 -4 -26 -8 -26 -4 0 -9 -15 -10 -32 -2 -18 -7 -35 -13 -36 -6 -3 -5
-10 3 -20 10 -12 10 -14 1 -8 -7 4 -14 2 -14 -3 -3 -21 -4 -26 -12 -38 -5 -7
-5 -13 0 -13 4 0 1 -5 -7 -10 -13 -9 -13 -10 0 -10 12 -1 11 -3 -2 -11 -10 -5
-18 -21 -18 -34 0 -14 -6 -25 -12 -25 -10 0 -9 -3 1 -9 10 -7 10 -10 1 -13 -7
-2 -12 -16 -12 -31 0 -15 -4 -30 -9 -33 -5 -3 -9 -16 -9 -30 0 -14 -4 -23 -8
-20 -9 5 -10 -1 -13 -49 -1 -13 -5 -22 -10 -19 -8 4 -14 -43 -10 -69 1 -5 -3
-6 -9 -2 -5 3 -12 -11 -16 -34 -4 -23 -10 -39 -14 -36 -4 2 -6 -6 -5 -20 2
-13 -3 -29 -10 -35 -7 -6 -11 -19 -8 -29 2 -9 -2 -23 -11 -30 -8 -7 -12 -19
-9 -27 3 -8 1 -20 -5 -27 -6 -6 -12 -23 -14 -37 -2 -14 -8 -24 -14 -23 -6 1
-10 -9 -8 -22 1 -14 -2 -27 -7 -31 -5 -3 -7 -10 -4 -15 4 -5 2 -9 -4 -9 -5 0
-8 -9 -6 -21 2 -11 -2 -31 -9 -42 -8 -12 -12 -30 -11 -40 2 -9 0 -15 -5 -12
-4 2 -10 -13 -14 -35 -3 -22 -10 -40 -15 -40 -5 0 -8 -8 -7 -17 2 -10 -1 -20
-5 -23 -5 -3 -10 -15 -12 -25 -1 -11 -6 -25 -10 -32 -4 -6 -1 -14 5 -16 8 -3
6 -6 -5 -6 -10 -1 -15 -6 -12 -11 4 -6 1 -17 -5 -25 -6 -8 -9 -19 -5 -25 3 -5
2 -10 -4 -10 -5 0 -8 -9 -6 -20 2 -11 -1 -22 -6 -25 -5 -4 -7 -11 -4 -16 4 -5
2 -9 -4 -9 -5 0 -8 -9 -6 -20 2 -11 0 -18 -6 -15 -5 4 -9 3 -10 -2 -2 -19 -8
-46 -15 -61 -6 -16 -12 -41 -16 -69 -1 -7 -6 -13 -11 -13 -5 0 -7 -7 -4 -15 4
-8 2 -17 -4 -20 -5 -4 -7 -11 -4 -16 4 -5 1 -9 -5 -9 -6 0 -9 -4 -6 -9 3 -5
-1 -25 -9 -45 -8 -19 -15 -39 -14 -43 3 -21 -2 -34 -12 -28 -6 4 -9 1 -8 -6 2
-8 -3 -25 -10 -38 -10 -18 -10 -22 0 -16 8 6 11 4 7 -6 -5 -12 14 -14 116 -14
95 0 120 3 118 13 -1 8 2 11 8 7 6 -3 8 -10 6 -14 -3 -4 40 -8 94 -8 55 -1 98
2 96 6 -3 4 4 7 14 7 10 0 16 -4 13 -9 -3 -5 9 -6 26 -4 17 3 31 2 31 -3 0 -4
9 -6 20 -3 11 3 17 10 13 16 -4 6 -1 7 8 1 21 -13 199 -13 199 0 0 8 3 7 8 0
9 -15 134 -14 144 0 5 7 8 6 8 -3 0 -11 3 -11 17 0 12 10 15 10 9 1 -5 -9 1
-12 23 -10 17 1 31 7 31 13 0 6 3 6 8 -1 8 -13 150 -13 171 0 10 6 12 5 7 -3
-5 -8 2 -11 23 -9 17 1 31 7 31 13 0 6 3 6 8 -1 9 -15 134 -14 144 0 5 7 8 6
8 -3 0 -11 3 -11 17 0 13 11 15 11 9 1 -6 -11 -1 -12 23 -9 17 3 31 2 31 -3 0
-4 9 -6 20 -3 11 3 17 10 13 17 -5 8 -3 8 8 0 10 -8 412 -11 1427 -10 776 1
1412 -2 1412 -6 0 -3 9 -4 20 -1 11 3 17 10 13 16 -4 6 -1 7 8 1 21 -13 199
-13 199 0 0 8 3 7 8 0 9 -15 134 -14 144 0 5 7 8 6 8 -3 0 -11 3 -11 17 0 12
10 15 10 9 1 -5 -9 1 -12 23 -10 17 1 31 7 31 13 0 6 3 6 8 -1 8 -13 150 -13
171 0 10 6 12 5 7 -3 -5 -8 2 -11 23 -9 17 1 31 7 31 13 0 6 3 6 8 -1 9 -15
134 -14 144 0 5 7 8 6 8 -3 0 -11 3 -11 17 0 9 8 14 9 10 3 -4 -7 11 -11 48
-12 57 0 79 -7 69 -23 -3 -5 -9 -7 -13 -4 -5 2 -8 -3 -8 -13 0 -38 -3 -53 -10
-49 -5 3 -9 -11 -10 -31 -1 -19 -6 -38 -10 -41 -4 -3 -8 -12 -9 -18 -2 -29 -5
-33 -16 -30 -8 1 -11 -9 -9 -32 2 -22 -1 -31 -8 -27 -7 5 -10 -1 -8 -16 2 -13
-3 -29 -12 -36 -12 -10 -12 -12 -1 -6 11 6 11 2 -2 -12 -14 -16 -15 -23 -5
-34 9 -10 9 -11 0 -6 -12 7 -17 -7 -16 -42 1 -7 -4 -11 -11 -9 -8 3 -10 -6 -8
-31 4 -29 2 -34 -12 -29 -8 3 -15 3 -15 -1 5 -29 -3 -72 -11 -67 -6 4 -10 3
-9 -2 1 -4 1 -24 0 -43 -1 -27 -4 -31 -11 -20 -7 11 -10 5 -10 -22 0 -21 -4
-38 -10 -38 -5 0 -9 -3 -9 -7 4 -24 -2 -53 -10 -49 -5 3 -12 -1 -15 -10 -3 -9
-2 -12 4 -9 6 4 1 -10 -10 -30 -11 -20 -16 -34 -10 -30 6 3 7 0 4 -9 -3 -9
-10 -16 -15 -16 -4 0 -6 -6 -3 -14 3 -8 0 -17 -5 -21 -6 -3 -9 -11 -6 -16 4
-5 1 -9 -4 -9 -6 0 -11 -5 -11 -11 0 -5 5 -7 11 -3 6 3 4 -5 -5 -18 -9 -14
-13 -28 -9 -31 3 -4 1 -7 -6 -7 -7 0 -11 -6 -8 -12 2 -7 -4 -22 -14 -34 -17
-18 -17 -22 -4 -40 14 -19 14 -19 30 4 9 13 22 21 28 19 7 -2 17 3 23 11 6 8
23 14 37 15 16 0 27 5 27 13 0 8 9 14 20 14 11 0 20 5 20 10 0 6 9 10 19 10
11 0 23 5 26 10 3 6 15 10 26 10 10 0 19 5 19 11 0 5 -5 7 -12 3 -7 -4 -8 -3
-4 5 4 6 11 9 16 6 11 -7 100 36 100 48 0 5 7 4 15 -3 13 -11 14 -10 9 4 -4 9
-3 16 2 15 21 -4 35 2 29 11 -3 6 1 7 9 4 9 -3 16 -2 16 3 0 5 6 10 13 11 32
3 51 10 55 20 2 7 10 12 18 12 8 0 14 5 14 11 0 7 9 9 21 6 16 -4 19 -2 14 11
-3 9 -3 13 1 9 4 -4 13 -2 21 4 7 6 13 9 13 5 0 -3 20 5 44 19 24 13 47 21 51
17 5 -4 5 -1 1 6 -4 6 -2 13 3 13 32 4 36 6 34 15 -1 6 8 10 20 10 13 -1 21 4
19 12 -2 10 2 10 19 1 12 -6 19 -7 15 -1 -8 13 15 30 37 26 11 -1 17 2 14 10
-3 7 4 13 16 14 12 0 23 6 25 12 2 5 8 8 13 4 5 -3 9 0 9 6 0 6 5 8 12 4 6 -4
16 -1 22 7 6 8 22 20 35 27 19 11 22 11 16 0 -3 -7 0 -5 8 4 8 10 17 15 20 11
4 -3 7 -1 7 6 0 7 5 9 10 6 6 -3 10 -1 10 4 0 6 7 11 16 11 8 0 12 4 9 10 -3
5 0 7 8 4 8 -3 18 0 22 5 3 6 11 9 16 6 5 -4 9 -1 9 5 0 9 54 37 55 28 1 -2
13 5 28 15 15 9 27 15 27 12 0 -4 7 1 16 10 10 9 26 14 36 12 16 -5 17 -3 6
10 -11 14 -11 15 2 11 17 -6 70 18 70 32 0 5 7 7 15 4 8 -4 15 -1 15 5 0 6 3
10 8 10 21 -4 32 3 32 19 0 13 2 14 9 3 6 -9 11 -10 15 -2 4 6 17 11 29 11 18
0 19 2 7 10 -12 8 -11 10 8 10 12 0 22 4 22 8 0 4 10 9 22 9 13 1 24 7 26 13
2 5 11 10 21 10 9 0 23 9 31 20 10 14 16 16 22 7 6 -9 8 -9 8 1 0 6 9 12 21
12 11 0 17 5 14 10 -3 6 -1 11 4 11 6 1 16 2 21 3 6 0 14 6 18 11 4 6 16 12
27 13 11 2 23 9 26 14 4 6 12 7 18 4 6 -4 11 0 11 9 0 9 5 13 11 10 5 -4 19 1
30 11 10 9 19 13 19 8 0 -5 5 -1 10 8 6 9 19 15 30 13 11 -2 19 1 17 7 -1 6 4
13 12 16 9 3 11 0 7 -9 -4 -8 1 -4 12 8 11 13 30 23 41 23 12 0 24 6 27 14 3
8 12 12 20 9 8 -3 14 1 14 11 0 10 6 13 15 10 8 -4 15 -1 15 6 0 6 4 9 9 5 5
-3 13 0 16 6 4 5 14 8 22 5 8 -3 11 -1 8 4 -6 9 2 12 22 9 3 0 10 6 14 13 4 8
26 20 48 28 22 7 38 17 35 21 -3 5 4 9 16 9 12 0 19 4 16 9 -4 5 2 8 11 7 10
-2 24 4 31 13 10 12 12 12 6 1 -7 -12 -5 -13 8 -3 8 7 19 9 23 5 5 -4 5 -2 1
5 -4 8 7 18 31 29 21 10 41 18 45 18 4 1 16 9 28 18 13 12 20 14 20 5 0 -8 4
-7 10 3 5 8 15 15 22 15 7 1 12 6 11 13 -2 6 4 9 13 5 8 -3 21 2 28 12 7 10
18 15 23 12 6 -4 13 0 17 8 3 8 14 15 24 15 10 0 22 3 26 8 7 7 11 8 37 11 5
0 7 6 3 12 -4 7 -1 10 7 7 8 -3 20 2 28 9 7 8 20 12 28 9 8 -3 12 -2 9 3 -7
12 22 23 37 14 6 -4 8 -1 5 8 -4 10 1 15 13 16 11 1 32 11 48 22 16 12 36 21
45 21 9 0 16 5 16 11 0 5 5 7 10 4 6 -3 10 -3 10 2 0 11 51 34 61 27 5 -3 9 2
9 10 0 10 6 13 17 9 11 -4 14 -3 9 5 -5 8 3 14 23 18 17 4 31 10 31 15 0 5 7
9 15 9 25 0 65 23 58 33 -4 6 0 8 10 4 10 -3 17 -2 17 4 0 6 5 7 10 4 6 -3 10
-1 10 4 0 6 9 11 19 11 11 0 21 5 23 10 2 6 13 12 25 13 12 0 19 5 17 9 -3 4
6 8 20 8 14 0 26 4 26 9 0 5 9 13 20 16 11 4 17 11 14 17 -4 7 -2 8 5 4 6 -4
19 -2 28 5 9 8 23 14 31 14 8 0 16 8 18 18 1 9 -1 15 -6 12 -4 -3 -10 2 -14
10 -3 8 -11 15 -18 15 -7 0 -19 9 -26 20 -7 12 -17 18 -22 15 -6 -3 -10 0 -10
7 0 7 -15 20 -33 28 -17 8 -31 21 -30 28 2 6 -4 12 -12 12 -8 0 -15 4 -15 9 0
5 -13 14 -30 21 -16 7 -30 18 -30 25 0 7 -13 19 -29 26 -16 7 -27 17 -25 21 3
4 -2 8 -11 8 -10 0 -13 5 -9 12 5 8 2 9 -9 5 -11 -4 -17 -1 -17 8 0 8 -7 15
-16 15 -8 0 -13 4 -10 8 2 4 -4 14 -16 21 -16 10 -19 10 -12 -1 6 -10 4 -10
-9 1 -9 7 -14 17 -11 22 3 5 -1 9 -8 9 -8 0 -20 9 -28 20 -8 11 -20 20 -27 20
-7 0 -13 5 -13 10 0 6 -7 10 -15 10 -8 0 -15 5 -15 11 0 5 -4 7 -10 4 -5 -3
-10 -1 -10 5 0 6 -6 18 -14 26 -11 11 -16 11 -19 1 -4 -7 -6 -6 -6 4 -1 9 -10
19 -21 22 -11 3 -20 12 -20 21 0 9 -5 16 -11 16 -5 0 -7 -6 -3 -12 5 -10 3
-10 -7 0 -8 7 -14 18 -14 25 -1 7 -6 11 -13 10 -7 -2 -12 5 -12 15 0 14 -2 15
-10 2 -8 -13 -10 -12 -10 3 0 10 -4 15 -10 12 -5 -3 -10 -1 -10 5 0 6 -5 8
-12 4 -9 -6 -9 -3 0 9 12 14 11 16 -6 12 -14 -2 -22 3 -25 17 -4 13 -11 19
-21 15 -9 -4 -17 1 -21 14 -4 12 -13 18 -21 15 -8 -3 -13 0 -11 7 1 7 -4 11
-10 10 -7 -2 -13 3 -13 11 0 10 -7 13 -21 11 -18 -4 -19 -2 -8 13 7 9 10 14 5
10 -5 -4 -14 -2 -22 5 -33 30 -44 37 -54 37 -6 0 -8 5 -5 10 3 6 -1 10 -9 10
-9 0 -16 5 -16 10 0 6 -7 10 -15 10 -8 0 -15 7 -15 16 0 8 -4 12 -10 9 -5 -3
-10 -1 -10 4 0 6 -7 11 -16 11 -8 0 -12 5 -9 10 3 6 -3 10 -14 10 -12 0 -21 6
-21 14 0 8 -9 18 -20 21 -11 3 -20 13 -20 20 0 8 -8 12 -19 10 -15 -3 -18 1
-14 12 4 10 2 14 -4 10 -5 -3 -17 3 -26 14 -10 11 -22 17 -28 14 -5 -4 -9 -3
-8 2 4 16 -13 43 -23 37 -5 -4 -24 9 -42 28 -31 33 -63 53 -78 50 -5 -1 -8 4
-8 11 0 8 -10 22 -22 33 -14 12 -19 14 -14 4 5 -8 -3 -3 -16 13 -14 15 -29 27
-33 27 -4 0 -20 14 -35 30 -15 17 -33 30 -39 30 -6 0 -11 3 -11 8 0 4 -10 12
-22 17 -13 6 -22 18 -22 27 1 10 -4 14 -12 11 -16 -6 -46 21 -36 32 4 4 2 6
-3 5 -22 -5 -34 1 -40 20 -4 11 -10 18 -15 15 -4 -3 -13 2 -20 10 -7 8 -17 12
-24 8 -6 -3 -8 -2 -4 2 8 9 -60 75 -76 75 -5 0 -22 14 -38 32 -15 17 -28 28
-28 23 0 -4 -11 4 -25 19 -14 15 -25 24 -25 20 0 -3 -7 -1 -15 6 -8 7 -12 16
-9 21 3 5 0 8 -8 7 -7 -2 -12 3 -10 10 1 8 -2 11 -7 8 -13 -8 -42 4 -35 15 3
5 -2 9 -11 9 -9 0 -13 5 -10 10 3 6 -3 10 -15 10 -12 0 -18 5 -15 10 3 6 1 10
-6 10 -6 0 -22 12 -35 26 -14 15 -29 22 -37 18 -6 -4 -9 -4 -5 1 8 9 -15 35
-32 35 -6 0 -9 4 -6 8 2 4 -4 8 -15 8 -12 0 -18 -5 -15 -13 3 -7 -1 -19 -9
-27 -11 -11 -12 -16 -2 -19 9 -4 9 -6 0 -6 -7 -1 -13 -11 -13 -24 0 -13 -5
-28 -12 -35 -9 -9 -9 -12 2 -12 11 -1 10 -5 -4 -15 -11 -8 -16 -15 -12 -15 5
0 4 -6 -1 -12 -12 -16 -29 -71 -32 -106 0 -7 -5 -11 -9 -8 -4 2 -8 -7 -7 -22
0 -15 -6 -33 -15 -40 -13 -12 -13 -12 0 -6 12 7 13 5 3 -8 -7 -8 -10 -18 -6
-21 3 -4 1 -7 -6 -7 -7 0 -9 -5 -6 -10 4 -6 1 -17 -5 -25 -6 -8 -9 -19 -5 -25
3 -5 -1 -13 -9 -16 -9 -3 -16 -17 -16 -29 0 -13 -4 -27 -10 -30 -5 -3 -10 -19
-10 -36 0 -16 -5 -29 -11 -29 -8 0 -7 -6 2 -17 10 -11 10 -14 2 -9 -9 5 -13
-1 -13 -21 0 -15 -7 -37 -15 -47 -8 -10 -12 -23 -9 -27 2 -5 0 -17 -6 -29 -5
-11 -15 -29 -20 -40 -6 -12 -8 -25 -5 -30 4 -6 2 -10 -3 -10 -6 0 -13 -7 -16
-16 -4 -10 -2 -13 6 -8 7 4 1 -8 -12 -26 -13 -18 -17 -30 -9 -25 10 6 11 5 4
-3 -8 -9 -160 -12 -550 -13 -343 0 -546 -4 -558 -11 -14 -7 -17 -7 -13 1 9 14
-7 14 -21 0 -8 -8 -13 -8 -17 0 -4 6 -19 11 -34 11 -21 0 -24 -2 -12 -10 9 -6
10 -10 3 -10 -6 0 -15 5 -18 10 -5 8 -11 7 -21 -1 -10 -8 -14 -8 -14 0 0 6 -5
11 -11 11 -5 0 -7 -6 -3 -12 6 -10 4 -10 -7 0 -15 14 -33 17 -25 4 3 -5 -1 -9
-9 -9 -8 0 -12 4 -9 9 7 11 -3 10 -28 -3 -15 -8 -19 -8 -14 0 9 14 -7 14 -21
0 -8 -8 -13 -8 -17 0 -4 6 -19 11 -34 11 -21 0 -24 -2 -12 -10 9 -6 10 -10 3
-10 -6 0 -15 5 -18 10 -5 8 -11 7 -21 -1 -10 -8 -14 -8 -14 0 0 6 -5 11 -11
11 -5 0 -7 -6 -3 -12 6 -10 4 -10 -7 0 -7 6 -24 12 -39 12 -20 0 -22 -2 -10
-10 9 -6 10 -10 3 -10 -6 0 -15 5 -18 10 -5 8 -11 7 -21 -1 -10 -8 -14 -8 -14
0 0 6 -10 11 -22 11 -19 0 -20 -2 -8 -10 9 -6 10 -10 3 -10 -6 0 -15 5 -18 10
-5 8 -11 7 -21 -1 -11 -9 -14 -9 -14 1 0 9 -3 10 -14 1 -9 -8 -21 -8 -39 -2
-17 7 -28 7 -32 1 -9 -15 -27 -12 -19 3 6 10 4 10 -7 0 -17 -17 -32 -17 -23 0
6 9 4 9 -7 2 -16 -12 -39 -13 -56 -2 -7 4 -21 3 -32 -3 -26 -13 -34 -13 -25 3
6 9 4 9 -7 2 -17 -12 -39 -13 -58 -1 -10 6 -12 5 -7 -2 4 -7 2 -12 -3 -12 -6
0 -11 6 -11 13 0 9 -2 9 -9 -1 -4 -8 -12 -14 -16 -14 -4 0 -12 6 -16 14 -5 7
-9 8 -9 2 0 -12 -29 -12 -47 -1 -7 5 -21 3 -32 -3 -26 -13 -34 -13 -25 3 6 9
4 9 -7 2 -17 -12 -39 -13 -58 -1 -10 6 -12 5 -7 -2 4 -7 2 -12 -3 -12 -6 0
-11 6 -11 13 0 9 -2 9 -9 -1 -11 -17 -21 -17 -32 0 -5 7 -9 8 -9 2 0 -12 -29
-12 -47 -1 -7 5 -21 3 -32 -3 -26 -13 -34 -13 -25 3 6 9 4 9 -7 2 -16 -12 -39
-13 -56 -2 -7 4 -21 3 -32 -3 -26 -13 -34 -13 -25 3 6 9 4 9 -8 -1 -11 -9 -18
-10 -23 -2 -4 7 -12 7 -25 0 -25 -13 -33 -13 -24 3 6 9 4 9 -8 -1 -11 -9 -18
-10 -23 -2 -4 7 -12 7 -25 0 -25 -13 -33 -13 -24 3 6 9 4 9 -8 -1 -11 -9 -18
-10 -23 -2 -4 7 -12 7 -25 0 -25 -13 -33 -13 -24 3 6 9 4 9 -7 2 -16 -12 -39
-13 -56 -2 -7 4 -21 3 -32 -3 -26 -13 -34 -13 -25 3 6 9 4 9 -7 2 -17 -12 -39
-13 -58 -1 -10 6 -12 5 -7 -2 4 -7 2 -12 -3 -12 -6 0 -11 6 -11 13 0 9 -2 9
-9 -1 -11 -17 -21 -17 -32 0 -5 7 -9 8 -9 2 0 -12 -29 -12 -47 -1 -7 5 -21 3
-32 -3 -26 -13 -34 -13 -25 3 6 9 4 9 -7 2 -17 -12 -39 -13 -58 -1 -10 6 -12
5 -7 -2 4 -7 2 -12 -3 -12 -6 0 -11 6 -11 13 0 9 -2 9 -9 -1 -11 -17 -21 -17
-32 0 -5 7 -9 8 -9 2 0 -12 -29 -12 -47 -1 -7 5 -21 3 -32 -3 -26 -13 -34 -13
-25 2 5 7 3 8 -7 3 -20 -13 -59 -15 -59 -3 0 6 -6 6 -15 -2 -9 -7 -18 -10 -22
-6 -3 3 0 6 7 6 7 0 10 3 7 6 -4 4 -13 1 -22 -6 -10 -8 -15 -9 -15 -1 0 6 -15
11 -32 11 -25 0 -29 -3 -18 -10 9 -6 10 -10 3 -10 -6 0 -15 5 -18 10 -5 8 -11
7 -21 -1 -10 -8 -14 -8 -14 0 0 6 -10 11 -22 11 -19 0 -20 -2 -8 -10 9 -6 10
-10 3 -10 -6 0 -15 5 -18 10 -5 8 -11 7 -21 -1 -10 -8 -14 -8 -14 0 0 6 -10
11 -22 11 -19 0 -20 -2 -8 -10 9 -6 10 -10 3 -10 -6 0 -15 5 -18 10 -5 8 -11
7 -21 -1 -10 -8 -14 -8 -14 0 0 6 -5 11 -11 11 -5 0 -8 -4 -5 -8 3 -5 -1 -9
-9 -9 -8 0 -11 5 -8 10 4 6 0 8 -10 4 -12 -4 -17 -1 -18 11 0 14 -2 14 -9 -3
-13 -29 -12 -8 2 36 6 22 15 39 20 39 5 0 8 8 6 18 -2 9 2 16 8 15 7 -1 10 6
7 17 -3 12 0 20 6 20 7 0 9 5 6 10 -4 6 -1 18 7 27 11 14 11 16 -1 8 -7 -4 -4
6 9 23 15 20 21 39 18 56 -3 15 -1 24 6 23 6 -1 12 8 14 21 2 12 9 22 15 22 7
0 6 4 -3 10 -10 6 -11 10 -2 10 6 0 12 9 12 20 0 11 4 20 10 20 5 0 9 3 9 8
-4 22 2 52 9 48 5 -3 9 9 10 26 0 17 6 36 11 41 6 6 11 21 11 33 0 12 7 24 15
28 8 3 12 12 9 21 -3 8 -1 15 5 15 6 0 11 5 11 11 0 5 -5 7 -12 3 -6 -4 -4 3
5 17 9 13 17 31 17 41 0 10 5 18 11 18 5 0 8 4 4 9 -3 5 0 13 6 16 5 4 8 13 5
21 -3 8 -1 14 4 14 5 0 7 6 4 14 -3 8 -1 17 5 21 6 3 11 15 11 26 0 10 5 18
12 16 8 -1 11 9 9 31 -2 22 2 34 13 38 9 3 13 11 10 16 -6 9 1 29 27 80 5 10
9 27 9 38 0 12 7 20 18 21 11 0 12 2 4 6 -10 4 -9 10 5 26 10 11 12 17 6 13
-9 -5 -11 -2 -7 8 3 9 10 14 15 11 4 -3 6 4 4 16 -3 13 3 28 13 36 9 8 11 12
5 8 -7 -3 -13 -1 -13 5 0 6 7 13 16 17 8 3 13 12 10 20 -3 8 -1 11 4 8 6 -3
10 0 10 7 0 9 3 9 10 -2 8 -13 10 -13 10 -1 0 11 4 10 14 -4 11 -15 15 -16 22
-4 5 8 17 15 26 15 10 1 16 -2 13 -6 -3 -4 2 -10 10 -13 9 -4 12 -1 9 7 -3 7
2 13 10 13 8 0 13 -4 11 -8 -3 -4 2 -9 10 -12 9 -4 12 -1 9 7 -3 7 2 13 10 13
8 0 13 -4 10 -9 -3 -4 -1 -8 5 -8 5 0 12 6 14 13 4 9 8 8 16 -3 6 -8 11 -10
11 -4 0 6 11 12 25 12 15 0 22 -5 18 -12 -3 -6 0 -6 8 2 17 16 79 16 79 0 0
-9 2 -10 8 -2 9 15 64 15 55 0 -4 -6 1 -5 10 2 18 15 41 7 31 -10 -4 -7 -2 -8
5 -4 6 4 9 11 6 16 -3 4 28 8 69 7 42 0 73 -5 69 -10 -3 -4 5 -3 16 5 18 11
23 11 31 -2 6 -10 10 -11 10 -2 0 6 7 12 16 12 8 0 13 -4 10 -8 -3 -5 1 -9 9
-9 8 0 12 4 10 8 -3 4 11 7 30 7 20 0 32 -4 29 -10 -3 -5 3 -4 14 3 17 11 24
10 38 -2 11 -9 15 -9 10 -1 -4 7 -1 12 8 12 9 0 16 -6 16 -12 0 -10 2 -10 8 0
10 14 61 13 81 -2 11 -8 13 -8 7 1 -5 9 0 13 16 12 13 -1 405 -1 872 0 656 1
853 4 865 14 9 7 12 8 8 1 -5 -8 6 -11 33 -11 21 0 37 4 34 9 -3 4 -1 8 3 8 5
0 10 10 10 22 1 13 7 24 12 26 5 2 7 10 4 18 -3 8 0 14 6 14 6 0 11 5 11 11 0
5 -5 7 -11 3 -7 -4 -5 6 4 22 20 37 33 72 36 95 0 5 5 8 9 5 4 -2 9 10 10 27
2 18 7 33 12 35 6 2 10 14 10 26 0 12 5 27 12 34 7 7 9 12 6 12 -4 0 -1 12 7
27 8 15 12 30 9 35 -3 4 1 8 8 8 9 0 9 3 -2 10 -9 6 -10 10 -3 10 7 0 15 16
19 35 3 19 11 35 16 35 6 0 8 9 5 20 -3 11 -1 18 4 14 5 -3 9 -2 10 3 0 4 3
17 5 28 3 11 6 26 6 33 1 6 5 12 10 12 5 0 8 6 7 13 -3 25 1 38 11 32 6 -3 10
-1 10 4 0 6 -5 11 -12 11 -6 0 -2 10 9 23 11 12 19 34 18 49 -1 15 3 26 9 25
6 -1 12 13 14 31 2 17 7 32 13 32 5 0 9 14 9 31 0 19 4 28 11 24 6 -4 10 -1 8
6 -4 33 1 50 14 43 7 -5 6 0 -3 11 -9 11 -10 16 -2 11 8 -5 12 0 12 18 0 13 6
27 13 29 9 4 9 6 -1 6 -10 1 -10 4 0 15 7 8 16 12 19 10 3 -2 6 3 6 11 0 8 -5
11 -11 8 -6 -4 -5 0 1 9 7 8 10 18 6 21 -3 4 -2 7 4 7 6 0 14 7 17 16 4 10 2
13 -7 8 -8 -5 -7 -2 2 9 7 9 10 17 6 17 -4 0 -2 6 4 13 6 8 8 17 4 20 -3 4 -1
7 5 7 7 0 12 9 12 19 0 11 6 22 13 24 9 4 8 6 -2 6 -10 1 -11 4 -2 15 6 8 10
20 9 27 -2 8 3 13 10 11 8 -1 11 2 8 7 -4 5 -2 12 3 16 5 3 8 14 6 25 -2 12 0
18 6 15 5 -4 9 8 9 25 0 17 4 29 8 26 4 -2 9 12 10 32 2 20 10 44 19 54 12 14
13 18 3 18 -9 0 -7 5 6 15 14 11 15 14 4 15 -13 0 -13 1 0 10 17 11 15 12 -20
14 -14 1 -31 5 -37 9 -7 5 -13 5 -13 0 0 -10 -73 -9 -89 1 -6 4 -11 3 -11 -2
0 -5 -12 -7 -27 -5 -32 5 -39 5 -73 0 -14 -2 -33 1 -42 5 -11 5 -18 5 -18 -1
0 -6 -11 -6 -29 -1 -16 4 -32 6 -35 3 -9 -9 -87 -10 -93 -1 -2 5 -11 4 -19 -3
-11 -9 -17 -9 -29 1 -8 7 -15 9 -15 4 0 -10 -72 -10 -89 0 -6 4 -11 3 -11 -2
0 -5 -12 -7 -27 -5 -32 5 -39 5 -73 0 -14 -2 -33 1 -42 5 -11 5 -18 5 -18 -1
0 -6 -11 -6 -29 -1 -16 4 -32 6 -35 3 -9 -9 -87 -10 -92 -1 -3 5 -11 5 -17 1
-16 -10 -77 -10 -77 0 0 4 -10 3 -21 -4 -16 -8 -20 -8 -14 1 5 9 2 10 -11 3
-16 -7 -44 -8 -139 -3 -5 1 -22 -1 -37 -3 -16 -2 -28 0 -28 5 0 5 -8 5 -17 0
-10 -4 -29 -7 -43 -5 -34 5 -41 5 -72 0 -16 -2 -28 0 -28 5 0 5 -8 5 -17 0
-10 -4 -29 -7 -43 -5 -34 5 -41 5 -72 0 -16 -2 -28 0 -28 5 0 5 -8 5 -17 0
-10 -4 -29 -7 -43 -5 -34 5 -41 5 -72 0 -16 -2 -28 0 -28 5 0 5 -10 4 -21 -3
-17 -9 -20 -8 -14 2 6 8 4 10 -5 4 -18 -11 -90 -13 -97 -3 -2 5 -11 4 -19 -3
-11 -9 -17 -9 -29 1 -8 7 -15 9 -15 4 0 -10 -72 -10 -89 0 -6 4 -11 3 -11 -2
0 -5 -12 -7 -27 -5 -32 5 -39 5 -73 0 -14 -2 -33 1 -42 5 -11 5 -18 5 -18 -1
0 -6 -11 -6 -29 -1 -16 4 -32 6 -35 3 -9 -9 -87 -10 -93 -1 -2 5 -10 5 -16 0
-14 -10 -27 -10 -44 1 -7 5 -13 5 -13 0 0 -11 -162 -10 -179 1 -10 6 -12 6 -7
-2 5 -8 2 -10 -8 -6 -9 3 -16 11 -16 16 0 6 -7 7 -15 4 -9 -3 -18 1 -21 9 -4
8 -10 13 -14 10 -4 -3 -10 1 -13 9 -3 8 0 17 7 19 9 4 12 15 8 32 -3 16 0 30
7 34 7 4 13 18 14 29 1 12 5 22 9 22 4 0 8 17 8 38 0 27 3 33 10 22 8 -12 10
-10 10 10 0 41 3 60 10 60 3 0 12 23 19 50 7 28 16 48 20 46 4 -3 7 4 8 14 1
10 11 38 22 63 12 25 21 52 21 59 0 8 6 22 14 33 7 11 12 30 11 42 -1 12 2 20
7 17 4 -3 8 6 8 20 0 14 5 26 11 26 5 0 8 4 4 9 -3 5 -1 12 5 16 6 4 8 11 5
16 -4 5 -1 9 4 9 6 0 10 3 9 8 -3 13 14 62 22 62 4 0 5 11 2 25 -2 14 0 25 5
25 5 0 10 7 11 15 1 8 3 21 4 29 1 8 7 12 13 9 8 -3 11 5 10 21 -2 14 0 26 4
26 4 0 8 6 9 13 3 38 8 53 20 60 7 5 10 12 7 18 -4 5 -1 9 6 9 8 0 7 5 -2 17
-10 12 -10 15 -1 9 8 -5 16 2 23 23 6 17 15 28 20 25 5 -3 12 2 15 11 4 9 13
14 21 10 11 -4 13 -1 9 11 -5 14 -4 15 9 4 12 -10 15 -10 15 1 0 11 2 11 10
-1 6 -9 13 -11 18 -5 11 15 32 17 32 2 0 -8 4 -7 10 3 8 13 13 13 31 2 11 -8
18 -9 14 -3 -3 6 -1 11 4 11 6 0 11 -6 11 -12 0 -10 3 -9 9 1 7 11 9 11 13 0
4 -12 7 -12 21 0 14 11 17 11 17 0 0 -11 2 -11 10 1 5 8 10 10 10 4 0 -7 15
-12 35 -12 24 0 33 4 28 12 -5 8 -3 8 8 0 18 -15 71 -15 62 -1 -4 6 -1 7 8 1
21 -13 242 -14 251 0 5 8 8 7 8 -1 0 -7 12 -13 26 -13 17 0 23 4 18 13 -6 9
-5 9 7 0 12 -10 18 -10 29 0 9 9 11 9 6 0 -5 -9 12 -12 63 -10 40 1 67 5 64
11 -4 5 -1 6 8 0 22 -13 140 -14 133 0 -3 6 2 2 10 -8 9 -11 16 -15 16 -10 0
6 7 11 15 11 8 0 15 -5 15 -11 0 -5 7 -1 16 10 8 10 13 14 10 8 -4 -7 5 -12
22 -12 486 2 822 -4 822 -15 0 -7 7 -3 15 7 14 18 20 15 15 -9 -1 -5 4 -4 11
3 14 13 63 17 55 4 -3 -5 1 -9 9 -9 8 0 12 4 9 9 -8 12 10 10 24 -4 9 -9 13
-7 18 5 3 9 10 14 15 11 5 -3 7 -9 5 -13 -3 -4 1 -8 9 -8 8 0 12 4 9 9 -8 12
10 10 24 -4 9 -9 13 -7 18 5 3 9 10 14 15 11 5 -3 6 -11 2 -17 -5 -9 -3 -9 8
0 12 10 18 10 29 0 10 -9 11 -9 6 1 -4 7 -1 12 8 12 8 0 16 -6 19 -12 3 -9 7
-7 12 5 7 16 8 16 20 1 8 -11 17 -14 26 -8 20 12 62 13 76 2 7 -6 14 -5 19 3
5 8 3 9 -6 4 -8 -5 -11 -4 -6 3 4 6 13 9 21 6 8 -4 12 -11 8 -17 -4 -6 -1 -7
8 -1 21 13 59 16 59 4 0 -5 5 -10 11 -10 5 0 7 5 4 10 -3 6 -1 10 4 10 6 0 11
-4 11 -8 0 -4 9 -8 21 -9 17 -2 18 1 8 13 -10 12 -9 13 4 8 8 -3 18 -12 21
-20 3 -7 12 -11 21 -8 8 3 13 10 10 14 -6 10 21 7 31 -3 4 -4 14 -7 23 -7 14
0 14 2 1 10 -9 6 -10 10 -3 10 6 0 15 -4 18 -10 3 -5 11 -10 16 -10 6 0 7 5 4
10 -11 17 7 11 22 -7 10 -14 13 -14 11 -3 -2 9 4 14 15 14 14 -2 15 1 6 12 -7
9 -7 14 -1 14 5 0 13 7 16 16 3 8 2 12 -4 9 -6 -3 -7 1 -4 9 3 9 10 16 14 16
5 0 7 11 5 25 -1 14 1 25 6 25 4 0 10 14 14 30 4 17 10 30 14 30 4 0 7 10 8
22 1 11 8 25 15 29 10 7 10 9 -2 9 -13 0 -13 1 0 10 8 5 11 10 6 10 -5 0 -2 8
6 18 9 9 14 27 12 40 -2 14 2 25 11 28 8 4 12 10 9 15 -3 6 0 16 6 24 7 8 10
15 6 15 -4 0 1 14 9 30 9 17 13 36 8 43 -4 7 0 7 10 -2 16 -13 17 -12 8 12 -7
18 -7 28 1 33 7 5 8 3 3 -6 -5 -8 -4 -11 3 -7 5 4 9 18 8 32 -2 13 3 26 10 29
8 3 14 10 14 16 0 6 -6 8 -12 4 -10 -6 -10 -5 -1 7 6 8 13 18 15 24 1 5 7 9
12 7 5 -2 3 5 -5 14 -12 15 -12 16 0 9 11 -6 13 -2 9 18 -4 18 -1 24 9 20 8
-3 13 2 13 15 0 12 5 24 10 27 6 4 8 11 4 16 -3 5 2 21 11 36 12 17 13 23 4
17 -12 -6 -12 -5 0 9 7 9 11 24 7 32 -3 9 0 15 10 15 8 0 12 5 9 10 -4 6 1 22
10 37 12 17 13 23 4 17 -12 -6 -12 -5 0 9 7 9 10 17 5 17 -5 0 -2 5 6 10 8 5
16 22 17 37 1 15 7 29 13 31 5 2 8 8 4 13 -3 5 0 9 6 9 6 0 9 4 5 10 -3 5 1
26 10 46 8 20 12 40 9 45 -3 5 -1 9 4 9 15 0 21 37 8 50 -8 8 -6 9 7 4 13 -5
18 -2 17 7 -4 29 0 40 13 33 7 -5 6 0 -3 11 -9 11 -10 16 -2 11 11 -6 17 11
13 37 0 4 4 7 9 7 6 0 10 14 10 31 0 16 4 28 9 24 6 -3 8 3 6 15 -2 11 0 22 5
25 5 3 6 13 3 22 -4 11 -3 14 6 9 8 -5 11 -3 10 5 -3 21 12 70 20 64 4 -2 7
11 6 30 0 18 3 31 7 29 4 -3 8 2 8 11 0 14 -23 16 -200 15 -175 -1 -201 -4
-211 -18 -8 -14 -10 -14 -6 -1 4 13 -13 15 -139 16 -93 0 -141 -4 -137 -10 4
-6 1 -7 -8 -1 -8 5 -25 10 -37 12 -17 2 -22 -1 -16 -10 6 -10 5 -11 -8 -1 -18
15 -180 14 -171 -1 4 -5 1 -6 -8 0 -23 14 -62 17 -53 3 5 -8 3 -9 -7 -3 -21
13 -100 14 -92 2 4 -7 1 -8 -8 -2 -23 14 -62 17 -53 3 5 -8 3 -9 -7 -3 -21 13
-100 14 -92 2 4 -7 1 -8 -8 -2 -23 14 -62 17 -53 3 5 -8 3 -9 -7 -3 -21 13
-100 14 -92 2 4 -7 1 -8 -8 -2 -8 5 -25 10 -37 12 -17 2 -22 -1 -16 -10 6 -10
4 -10 -7 -2 -10 7 -171 10 -530 9 -437 -1 -520 -3 -535 -15 -16 -14 -17 -13
-11 5 6 17 5 18 -5 5 -17 -19 -54 -19 -50 0 2 11 -1 11 -11 -2 -13 -16 -15
-16 -31 0 -16 16 -17 16 -10 -1 7 -19 -14 -21 -28 -2 -5 6 -12 4 -18 -5 -9
-13 -10 -13 -10 0 0 13 -1 13 -10 0 -9 -13 -10 -13 -10 0 0 13 -1 13 -10 0 -9
-13 -10 -13 -10 0 0 13 -1 13 -10 0 -9 -13 -11 -13 -20 0 -6 9 -13 11 -17 5
-10 -12 -113 -14 -106 -2 3 5 -5 6 -18 2 -36 -12 -63 -12 -77 -1 -9 6 -16 6
-20 0 -9 -13 -55 -12 -64 1 -5 6 -8 4 -8 -5 0 -13 -1 -13 -10 0 -6 9 -13 11
-17 5 -10 -12 -113 -14 -106 -2 3 5 -5 6 -18 2 -36 -12 -63 -12 -77 -1 -9 6
-16 6 -20 0 -9 -13 -55 -12 -64 1 -5 6 -12 4 -18 -5 -9 -13 -10 -13 -10 0 0
13 -1 13 -10 0 -9 -13 -10 -13 -10 0 0 13 -1 13 -10 0 -9 -13 -10 -13 -10 0 0
12 -2 12 -9 2 -9 -16 -20 -15 -40 1 -12 10 -13 9 -6 -3 5 -9 0 -7 -14 4 -22
20 -22 20 -15 0 7 -17 6 -17 -9 -5 -13 10 -17 11 -17 1 0 -9 -7 -7 -20 5 -19
17 -20 17 -14 2 7 -19 -15 -20 -28 -2 -5 6 -12 4 -18 -5 -9 -13 -10 -13 -10 0
0 13 -1 13 -10 0 -9 -13 -10 -13 -10 0 0 12 -2 13 -9 1 -7 -11 -9 -11 -14 0
-4 12 -6 12 -6 0 -1 -11 -6 -10 -23 5 -14 11 -18 13 -10 3 9 -13 9 -16 -3 -16
-8 0 -15 5 -15 10 0 5 -7 4 -15 -3 -11 -9 -15 -9 -15 -1 0 7 -5 9 -12 5 -20
-12 -48 -12 -41 0 4 6 0 5 -9 -2 -13 -10 -17 -10 -21 0 -4 10 -8 10 -16 -2
-10 -13 -11 -13 -11 0 0 13 -1 13 -10 0 -9 -13 -10 -13 -10 0 0 13 -1 13 -10
0 -9 -13 -10 -13 -10 0 0 12 -2 12 -9 2 -9 -16 -20 -15 -40 1 -12 10 -13 9 -6
-3 5 -9 0 -7 -14 4 -22 20 -22 20 -15 0 7 -17 6 -17 -9 -5 -13 10 -17 11 -17
1 0 -9 -7 -7 -20 5 -19 17 -20 17 -14 2 7 -19 -15 -20 -28 -2 -5 6 -12 4 -18
-5 -9 -13 -10 -13 -10 0 0 13 -1 13 -10 0 -9 -13 -10 -13 -10 0 0 12 -2 13 -9
1 -7 -11 -9 -11 -14 0 -4 12 -6 12 -6 0 -1 -11 -6 -10 -23 5 -14 11 -18 13
-10 3 9 -13 9 -16 -3 -16 -8 0 -15 5 -15 10 0 5 -7 4 -15 -3 -11 -9 -15 -9
-15 -1 0 7 -5 9 -12 5 -20 -12 -48 -12 -41 0 4 6 0 5 -9 -2 -13 -10 -17 -10
-21 0 -4 10 -8 10 -16 -2 -10 -13 -11 -13 -11 0 0 13 -1 13 -10 0 -9 -13 -10
-13 -10 0 0 13 -1 13 -10 0 -9 -13 -10 -13 -10 0 0 12 -2 12 -9 2 -9 -16 -20
-15 -40 1 -12 10 -13 9 -6 -3 5 -9 0 -7 -14 4 -15 14 -20 15 -16 5 4 -10 -1
-14 -18 -14 -13 1 -28 5 -35 9 -7 4 -12 4 -12 -1 0 -4 -114 -8 -253 -7 -138 0
-260 -4 -271 -9 -14 -7 -17 -6 -10 5 5 8 -2 6 -19 -5 -15 -9 -27 -13 -27 -7 0
7 -6 6 -14 -2 -8 -7 -12 -16 -9 -20 2 -4 -3 -5 -11 -2 -9 3 -16 1 -16 -5 0 -6
-8 -8 -17 -4 -10 3 -15 3 -11 -2 8 -8 -28 -45 -43 -45 -5 0 -5 -7 -2 -17 4 -9
2 -14 -3 -11 -11 6 -45 -28 -36 -36 3 -3 0 -6 -7 -6 -8 0 -11 -6 -7 -17 4 -10
4 -14 0 -10 -10 9 -45 -33 -37 -46 3 -6 1 -7 -5 -3 -7 4 -12 3 -12 -3 0 -6
-10 -20 -22 -32 -13 -12 -17 -19 -10 -14 11 6 11 3 1 -13 -7 -12 -17 -18 -21
-16 -4 3 -8 -2 -8 -10 0 -9 -5 -16 -11 -16 -5 0 -8 -4 -5 -9 3 -5 -6 -17 -19
-27 -14 -10 -25 -27 -25 -36 0 -10 -4 -18 -8 -18 -5 0 -14 -12 -20 -26 -7 -15
-17 -22 -24 -18 -7 4 -8 3 -4 -4 4 -7 3 -12 -3 -12 -6 0 -8 -8 -4 -17 3 -10 3
-15 -2 -11 -7 7 -28 -20 -86 -109 -12 -18 -26 -33 -32 -33 -6 0 -7 -3 -4 -6 4
-4 -1 -14 -11 -23 -9 -9 -24 -25 -32 -35 -13 -17 -13 -18 -1 -11 8 5 5 -6 -8
-23 -12 -18 -30 -32 -39 -32 -15 0 -15 -2 -2 -10 13 -8 12 -10 -2 -10 -10 0
-17 -3 -16 -7 3 -15 -14 -43 -22 -38 -8 5 -26 -33 -22 -47 1 -4 -6 -4 -15 -1
-13 5 -15 2 -10 -11 4 -10 1 -19 -8 -22 -8 -4 -15 -13 -15 -21 0 -8 -4 -11
-10 -8 -5 3 -10 -1 -10 -9 0 -15 -16 -38 -48 -72 -7 -8 -10 -20 -6 -26 5 -9 2
-8 -9 1 -15 12 -17 12 -11 -3 4 -10 1 -16 -7 -16 -7 0 -9 -3 -6 -6 4 -4 -3
-15 -15 -25 -11 -11 -17 -19 -12 -19 5 0 0 -7 -10 -15 -11 -8 -17 -15 -13 -15
7 0 -14 -28 -45 -62 -10 -10 -19 -21 -20 -25 -2 -5 -7 -7 -12 -5 -5 2 -6 -4
-2 -13 3 -9 -1 -18 -9 -21 -8 -4 -15 -12 -15 -20 0 -8 -8 -14 -17 -15 -11 0
-13 -3 -5 -6 6 -2 12 -9 12 -14 0 -4 -7 -5 -17 -2 -10 4 -14 2 -10 -4 4 -6 0
-13 -8 -17 -8 -3 -15 -12 -15 -21 0 -8 -4 -15 -10 -15 -5 0 -9 -6 -7 -12 1 -7
-4 -12 -10 -11 -8 2 -13 -8 -13 -25 0 -21 -2 -24 -10 -12 -8 13 -10 12 -10 -2
0 -10 -4 -18 -10 -18 -5 0 -10 -9 -10 -21 0 -11 -4 -17 -10 -14 -5 3 -10 -1
-10 -9 0 -9 -4 -16 -10 -16 -5 0 -10 -7 -10 -15 0 -8 -9 -20 -20 -27 -11 -7
-20 -21 -20 -30 0 -10 -9 -22 -21 -28 -13 -7 -18 -17 -15 -27 5 -12 1 -14 -14
-10 -13 3 -18 1 -13 -5 3 -6 -1 -16 -9 -22 -8 -6 -16 -15 -17 -21 -6 -23 -35
-64 -43 -59 -5 3 -8 2 -7 -3 4 -21 -2 -33 -17 -33 -8 0 -13 -4 -9 -9 3 -5 -1
-16 -9 -24 -8 -8 -13 -17 -10 -20 3 -3 -4 -8 -15 -12 -12 -4 -18 -12 -14 -20
3 -8 -2 -18 -11 -21 -9 -3 -13 -10 -10 -15 5 -8 -9 -13 -28 -10 -4 0 -5 -5 -2
-12 2 -7 -5 -22 -16 -34 -11 -12 -20 -25 -20 -28 0 -3 -14 -20 -30 -38 -17
-18 -28 -38 -25 -44 2 -7 1 -12 -3 -12 -22 4 -30 -3 -27 -21 2 -11 1 -18 -4
-16 -4 3 -15 -8 -25 -25 -9 -16 -21 -29 -27 -29 -5 0 -9 -7 -9 -15 0 -8 -5
-15 -11 -15 -5 0 -8 -4 -4 -9 3 -6 -3 -14 -12 -20 -10 -6 -13 -11 -8 -11 6 0
3 -5 -5 -10 -8 -5 -15 -15 -15 -22 -1 -7 -6 -12 -13 -11 -7 2 -9 -4 -5 -14 5
-13 2 -15 -11 -10 -10 4 -15 3 -11 -3 3 -6 0 -13 -9 -16 -8 -3 -18 -19 -21
-36 -4 -16 -9 -27 -13 -24 -3 3 -10 -2 -16 -12 -36 -61 -74 -111 -80 -105 -3
3 -6 -3 -6 -15 0 -12 -4 -22 -10 -22 -5 0 -10 -8 -10 -17 0 -15 -2 -16 -10 -3
-8 13 -10 12 -10 -2 0 -10 0 -21 1 -24 0 -3 -12 -16 -28 -30 -15 -13 -25 -24
-20 -24 4 0 -1 -9 -10 -19 -26 -29 -36 -43 -52 -73 -8 -15 -18 -25 -22 -23 -8
5 -25 -33 -21 -47 1 -5 -5 -8 -13 -8 -9 0 -21 -11 -27 -25 -6 -14 -15 -25 -20
-25 -5 0 -6 -5 -3 -10 3 -6 -1 -13 -9 -16 -9 -3 -14 -10 -11 -14 3 -4 -2 -11
-11 -14 -8 -3 -13 -10 -10 -14 3 -5 -8 -19 -24 -32 -17 -14 -26 -29 -22 -38 3
-9 1 -13 -5 -9 -6 4 -17 -1 -24 -10 -10 -12 -10 -14 -1 -9 22 13 13 -6 -16
-34 -16 -15 -38 -42 -50 -62 -12 -19 -33 -48 -47 -64 -41 -47 -46 -54 -38 -54
4 0 -1 -6 -12 -13 -10 -8 -15 -19 -11 -25 4 -7 1 -12 -9 -12 -8 0 -20 -12 -26
-27 -5 -15 -19 -33 -30 -41 -11 -8 -18 -20 -15 -28 3 -8 -1 -14 -10 -14 -10 0
-14 -6 -11 -14 4 -10 1 -13 -9 -9 -10 4 -12 0 -7 -13 4 -12 3 -15 -5 -10 -11
6 -17 -5 -13 -26 0 -5 -6 -8 -14 -8 -14 0 -20 -12 -16 -33 1 -5 -3 -6 -9 -2
-5 3 -10 -1 -10 -9 0 -9 -5 -16 -11 -16 -5 0 -7 -4 -4 -10 3 -5 -1 -10 -9 -10
-9 0 -16 -7 -16 -15 0 -8 -5 -15 -11 -15 -5 0 -7 -4 -4 -10 3 -5 1 -10 -5 -10
-6 0 -14 -8 -17 -17 -4 -10 -15 -25 -25 -34 -10 -10 -17 -23 -16 -30 2 -8 -3
-13 -10 -11 -6 1 -11 -4 -10 -10 2 -7 -3 -12 -9 -10 -7 1 -13 -7 -13 -17 0
-10 -7 -22 -16 -25 -8 -3 -12 -10 -9 -16 3 -5 2 -10 -3 -10 -5 0 -15 -11 -22
-25 -7 -13 -17 -22 -22 -19 -5 3 -8 -2 -6 -12 2 -12 -2 -18 -10 -16 -8 1 -11
-2 -7 -8 3 -5 -1 -13 -9 -16 -9 -3 -16 -13 -16 -21 0 -10 -6 -13 -16 -9 -8 3
-12 2 -9 -4 3 -6 1 -10 -4 -10 -15 0 -14 23 2 39 10 11 9 14 -1 18 -10 4 -10
8 -1 19 9 11 9 14 -1 14 -9 0 -7 6 5 20 16 18 16 20 1 26 -13 5 -14 9 -5 20 9
11 8 14 -2 14 -10 0 -11 2 -2 8 14 9 14 51 -1 71 -8 11 -8 13 1 8 8 -5 12 24
12 110 1 65 6 122 11 127 6 6 10 15 10 21 0 5 -5 3 -10 -5 -7 -11 -9 -8 -8 15
1 17 7 33 13 37 6 5 6 8 -2 8 -16 0 -17 32 -2 47 8 8 8 13 0 17 -6 4 -11 12
-11 17 0 6 5 7 10 4 13 -8 8 18 -5 27 -6 5 -4 8 5 8 13 0 13 1 0 10 -13 9 -13
10 0 10 13 0 13 1 0 10 -13 9 -13 10 0 10 13 0 13 1 0 10 -13 9 -13 10 0 10
13 0 13 1 0 10 -13 9 -13 10 0 10 13 0 13 1 0 10 -13 9 -13 11 0 20 13 9 13
10 0 10 -12 0 -12 2 -2 9 8 4 14 12 14 16 0 4 -6 12 -14 16 -7 5 -8 9 -2 9 6
0 11 14 12 32 1 23 -2 28 -8 18 -6 -9 -10 -10 -10 -3 0 6 4 15 10 18 14 9 12
45 -2 45 -9 0 -9 3 -3 8 16 10 17 64 3 74 -9 5 -9 8 -1 8 8 0 11 42 12 142 1
78 4 145 7 150 3 4 0 8 -6 8 -6 0 -8 5 -5 10 4 6 12 7 18 3 9 -5 9 -3 1 8 -15
21 -17 119 -1 120 6 0 3 4 -8 9 -11 5 -14 9 -7 9 8 1 10 9 6 27 -5 20 -4 25 5
19 9 -5 9 -2 0 13 -11 17 -10 24 2 38 9 11 9 15 2 10 -13 -7 -18 6 -6 17 11
11 12 56 2 63 -6 4 -6 11 2 20 9 11 9 14 -1 14 -10 0 -10 3 0 15 9 11 9 15 1
15 -7 0 -9 5 -5 12 12 20 13 57 2 64 -7 4 -6 9 3 14 10 7 10 12 1 22 -9 11 -9
17 0 26 9 9 9 12 -2 12 -11 0 -11 3 -2 12 8 8 8 17 1 31 -7 12 -7 17 -1 13 6
-3 10 8 10 29 0 22 -4 33 -11 28 -6 -4 -7 -1 -1 8 5 8 10 25 12 37 2 17 -1 22
-10 16 -10 -6 -10 -4 1 9 11 14 11 17 0 17 -11 0 -11 2 1 10 13 9 13 11 0 20
-11 7 -11 10 -2 10 14 0 12 36 -2 59 -6 9 -5 12 1 8 8 -5 11 48 11 164 0 126
4 174 14 186 9 12 10 15 1 9 -10 -5 -13 4 -13 34 0 30 3 39 13 35 6 -4 4 0 -5
7 -15 13 -15 15 0 26 9 7 11 10 5 7 -8 -4 -13 0 -13 9 0 9 6 16 13 17 6 0 3 4
-8 9 -11 5 -15 9 -8 9 7 1 10 8 7 16 -4 8 0 23 7 32 10 12 10 15 2 9 -7 -4
-13 -3 -13 1 0 5 6 15 13 22 10 11 10 14 0 18 -7 3 -13 9 -13 14 0 6 4 8 9 4
5 -3 13 0 17 6 4 7 3 9 -4 5 -6 -3 -13 -2 -17 4 -3 5 0 10 7 10 11 0 10 2 0 9
-11 6 -10 10 5 15 16 7 16 9 3 19 -16 13 -24 51 -9 41 5 -3 9 0 9 5 0 6 -4 11
-10 11 -5 0 -10 5 -10 11 0 5 5 7 10 4 14 -9 13 8 -2 23 -8 8 -8 15 0 24 7 9
12 92 13 228 2 131 7 221 13 229 9 12 8 13 -3 6 -11 -6 -13 -4 -7 11 13 32 15
55 5 49 -13 -9 -11 9 3 23 8 8 8 15 -3 28 -9 12 -10 15 -1 10 6 -4 12 -2 12 3
0 6 -5 11 -11 11 -8 0 -8 4 0 14 8 10 9 16 1 21 -5 3 -10 12 -10 18 0 7 4 6
10 -3 8 -12 10 -11 10 8 0 12 -4 22 -10 22 -5 0 -10 5 -10 11 0 5 4 8 10 4 5
-3 9 40 10 112 0 129 1 141 14 162 6 10 5 12 -2 7 -8 -5 -12 1 -12 14 0 13 4
19 12 14 7 -5 8 -3 2 7 -12 19 -12 33 1 41 6 5 6 8 -2 8 -7 0 -13 5 -13 11 0
5 6 7 13 3 7 -5 6 0 -3 11 -9 11 -10 16 -2 11 7 -4 12 -2 12 8 0 8 -6 17 -12
19 -10 4 -9 6 1 6 11 1 11 4 0 18 -10 11 -10 14 -1 9 9 -6 12 23 12 131 0 97
-4 143 -12 152 -10 11 -10 13 0 7 8 -5 12 2 12 24 0 19 -4 29 -10 25 -13 -8
-8 18 5 27 6 5 5 8 -2 8 -8 0 -13 13 -13 31 0 17 -4 28 -10 24 -5 -3 -10 3
-10 14 0 14 -6 21 -20 21 -11 0 -20 5 -20 10 0 6 -9 10 -21 10 -13 0 -18 4
-13 13 5 7 0 6 -11 -3 -11 -9 -16 -10 -11 -2 6 9 -30 12 -168 12 -130 0 -176
-3 -179 -12 -4 -10 -6 -10 -6 0 -1 6 -10 12 -22 12 -13 0 -18 -4 -13 -12 6
-10 4 -10 -7 -2 -21 17 -482 18 -472 1 5 -9 3 -9 -8 -1 -10 8 -113 12 -338 13
-289 1 -322 -1 -305 -14 16 -13 16 -14 1 -9 -26 9 -89 -5 -81 -18 5 -7 1 -9
-9 -5 -13 5 -17 0 -18 -21 -1 -15 -1 -33 0 -41 2 -7 -2 -11 -7 -7 -5 3 -9 -1
-9 -9 0 -8 5 -15 11 -15 6 0 4 -5 -4 -10 -13 -9 -13 -10 0 -10 13 0 13 -1 0
-10 -12 -8 -12 -10 -1 -10 11 0 11 -3 0 -16 -10 -13 -10 -17 2 -25 12 -7 12
-9 -1 -9 -13 0 -13 -1 0 -10 13 -9 13 -10 0 -10 -9 0 -11 -3 -5 -8 13 -9 18
-35 6 -28 -13 8 -10 -35 3 -53 8 -11 8 -13 0 -8 -7 4 -15 0 -18 -9 -3 -8 -2
-13 3 -10 5 3 12 -1 15 -10 3 -8 2 -12 -4 -9 -14 9 -12 -19 3 -34 7 -9 7 -11
1 -8 -7 4 -15 0 -18 -9 -3 -8 -2 -13 3 -10 5 3 12 -1 15 -10 3 -8 2 -12 -4 -9
-14 9 -12 -19 3 -34 7 -9 7 -11 1 -8 -7 4 -15 0 -18 -9 -3 -8 -2 -13 3 -10 5
3 12 -1 15 -10 3 -8 2 -12 -4 -9 -14 9 -12 -19 3 -34 7 -9 7 -11 1 -8 -7 4
-15 0 -18 -9 -3 -8 -2 -13 3 -10 5 3 12 -1 15 -10 3 -8 2 -13 -3 -10 -5 3 -12
-1 -15 -10 -3 -8 -2 -13 3 -10 5 3 12 -1 15 -10 9 -22 8 -24 -11 -24 -14 0
-15 -2 -4 -9 7 -5 11 -13 7 -19 -3 -6 0 -13 6 -15 10 -4 10 -6 0 -6 -10 -1
-10 -6 -1 -22 8 -15 8 -19 0 -15 -6 4 -11 2 -11 -3 0 -6 6 -11 13 -11 8 0 7
-4 -3 -10 -12 -8 -12 -10 -1 -10 11 0 11 -3 0 -16 -10 -13 -10 -17 2 -25 12
-7 12 -9 -1 -9 -13 0 -13 -1 0 -10 13 -9 13 -11 0 -20 -13 -9 -13 -10 0 -10
13 0 13 -1 0 -10 -13 -9 -13 -11 0 -20 13 -9 13 -10 0 -10 -13 0 -13 -1 0 -10
13 -9 13 -10 0 -10 -13 0 -13 -1 0 -10 13 -9 13 -10 0 -10 -13 0 -13 -1 0 -10
13 -9 13 -11 0 -20 -13 -9 -13 -10 0 -10 13 0 13 -1 0 -10 -8 -5 -11 -10 -6
-10 5 0 3 -7 -4 -15 -11 -13 -10 -15 6 -9 15 5 16 4 4 -4 -10 -8 -20 -5 -38
14 -14 13 -28 21 -33 18 -5 -3 -8 0 -7 8 2 8 -4 12 -14 10 -11 -2 -18 3 -18
13 0 8 -3 14 -7 14 -20 -3 -34 2 -28 11 3 6 -3 10 -14 10 -12 0 -21 5 -21 10
0 6 -7 10 -15 10 -8 0 -15 5 -15 10 0 6 -9 10 -21 10 -11 0 -17 5 -14 10 5 9
-15 15 -37 11 -5 0 -8 3 -8 9 0 5 -7 10 -15 10 -9 0 -18 6 -21 14 -3 9 -12 12
-21 9 -11 -4 -14 -2 -9 5 5 8 -3 12 -26 12 -25 0 -29 3 -18 10 12 8 11 10 -7
10 -13 0 -23 4 -23 8 0 4 -12 9 -27 10 -16 1 -29 7 -31 12 -2 6 -12 10 -23 10
-10 0 -19 5 -19 10 0 6 -12 10 -26 10 -17 0 -23 4 -18 13 4 6 4 9 -1 5 -4 -4
-15 -2 -23 5 -13 10 -14 9 -7 -3 8 -13 6 -13 -8 -2 -9 8 -20 11 -25 8 -6 -3
-15 1 -22 8 -6 8 -20 13 -30 11 -11 -2 -23 1 -26 7 -5 7 -2 8 6 3 9 -5 11 -4
6 3 -4 7 -22 12 -40 12 -17 0 -38 6 -45 13 -11 10 -12 9 -6 -3 6 -11 3 -10
-12 3 -11 9 -22 15 -25 12 -2 -3 -26 1 -51 9 -26 8 -47 11 -47 8 0 -4 -8 2
-17 13 -13 16 -15 17 -10 3 4 -10 2 -18 -2 -18 -5 0 -11 5 -13 11 -2 7 -19 13
-38 14 -19 2 -35 4 -35 5 0 4 -45 10 -102 12 -35 2 -63 6 -63 9 0 3 -11 4 -25
1 -14 -2 -25 0 -25 4 0 5 -17 9 -37 8 -21 0 -44 4 -52 10 -11 8 -13 8 -7 -1
10 -17 -5 -16 -30 2 -24 16 -35 11 -28 -13 5 -14 4 -14 -6 1 -9 14 -15 15 -32
6 -11 -6 -18 -7 -14 -1 10 16 -42 20 -64 5 -11 -8 -20 -10 -20 -5 0 6 -7 12
-14 15 -9 4 -13 1 -10 -7 3 -8 -5 -12 -25 -12 -17 0 -28 3 -26 7 3 4 -2 10
-11 13 -12 5 -15 2 -10 -9 4 -10 2 -14 -5 -9 -6 4 -15 0 -20 -7 -7 -11 -9 -11
-9 -1 0 7 -4 11 -9 7 -5 -3 -12 -1 -16 5 -3 5 -11 10 -16 10 -6 0 -7 -4 -4
-10 3 -5 2 -10 -4 -10 -5 0 -12 6 -14 13 -3 7 -6 4 -6 -6 -1 -10 -6 -15 -11
-12 -6 4 -7 12 -3 18 4 7 0 6 -10 -2 -9 -7 -17 -10 -17 -5 0 5 -5 2 -10 -6 -5
-8 -10 -10 -10 -5 0 6 -18 10 -40 10 -30 0 -39 -3 -35 -14 4 -11 2 -11 -8 -3
-10 9 -17 8 -27 -1 -10 -9 -11 -9 -6 1 4 6 2 12 -3 12 -6 0 -11 -5 -11 -10 0
-7 -7 -7 -21 1 -14 7 -19 7 -15 0 4 -7 -6 -9 -31 -7 -23 2 -45 -2 -55 -11 -10
-9 -18 -11 -22 -4 -4 6 -15 7 -29 2 -12 -4 -27 -6 -34 -4 -6 2 -14 -1 -18 -7
-5 -8 -10 -8 -20 0 -10 8 -15 8 -21 -1 -5 -8 -3 -9 6 -4 9 5 11 4 6 -4 -6 -9
-11 -9 -24 1 -12 10 -14 10 -8 1 5 -9 -2 -13 -26 -14 -18 -1 -39 -1 -47 0 -7
2 -11 -1 -8 -6 3 -4 -11 -9 -31 -11 -20 -1 -41 -7 -46 -12 -6 -6 -15 -10 -20
-10 -6 0 -4 5 4 10 12 7 10 9 -7 7 -12 0 -20 -4 -17 -8 2 -4 -4 -8 -13 -8 -46
-1 -54 -5 -48 -20 5 -13 4 -13 -6 -4 -8 8 -18 9 -30 2 -10 -5 -22 -9 -26 -8
-18 3 -34 -2 -30 -8 3 -5 -11 -9 -31 -10 -48 -2 -82 -13 -82 -26 0 -8 -4 -7
-12 1 -8 8 -17 6 -35 -8 -13 -10 -30 -17 -38 -14 -7 3 -16 1 -20 -5 -3 -6 -17
-11 -31 -11 -13 0 -24 -4 -24 -9 0 -5 -12 -8 -27 -8 -15 0 -29 -6 -31 -12 -2
-6 -13 -11 -23 -11 -13 0 -18 -4 -13 -12 5 -10 4 -10 -6 -1 -12 12 -46 1 -61
-20 -3 -4 -17 -9 -30 -9 -13 -1 -32 -7 -43 -14 -10 -7 -25 -10 -34 -7 -10 4
-13 2 -8 -5 7 -12 -5 -16 -32 -13 -7 1 -15 -5 -18 -13 -3 -8 -13 -13 -22 -12
-9 2 -23 -3 -30 -11 -8 -7 -18 -11 -23 -8 -5 4 -9 1 -9 -4 0 -6 -3 -10 -7 -10
-5 1 -11 0 -15 -1 -5 -1 -14 -3 -20 -4 -7 -1 -12 -7 -11 -12 2 -10 -4 -12 -46
-16 -11 -1 -17 -6 -14 -11 3 -5 -4 -6 -17 -2 -15 5 -20 4 -16 -4 4 -6 -4 -13
-19 -17 -14 -3 -25 -14 -26 -23 0 -9 -3 -11 -5 -4 -6 13 -72 -19 -86 -41 -6
-8 -8 -8 -8 1 0 7 -6 10 -14 7 -8 -3 -12 -12 -10 -19 4 -10 -1 -12 -15 -8 -12
3 -21 1 -21 -6 0 -6 -9 -11 -21 -11 -12 0 -17 -4 -14 -11 4 -6 0 -9 -8 -7 -9
2 -23 -6 -32 -17 -9 -11 -13 -13 -9 -5 7 13 5 13 -9 1 -9 -7 -17 -10 -17 -5 0
5 -5 1 -11 -8 -5 -10 -19 -18 -29 -18 -11 0 -20 -4 -20 -10 0 -5 -7 -10 -16
-10 -8 0 -12 -4 -9 -10 3 -5 -3 -10 -14 -10 -11 0 -25 -8 -30 -17 -8 -14 -11
-15 -11 -3 0 12 -3 11 -11 -2 -5 -10 -17 -18 -24 -18 -8 0 -15 -5 -15 -11 0
-6 -7 -8 -16 -5 -8 3 -13 2 -11 -2 3 -4 -4 -16 -15 -27 -19 -20 -19 -20 -13 0
5 16 4 15 -7 -3 -8 -12 -17 -20 -21 -16 -4 4 -17 -4 -30 -18 -12 -13 -28 -23
-35 -20 -7 2 -15 -3 -18 -12 -3 -9 -10 -13 -15 -10 -5 3 -9 -2 -9 -10 0 -9 -3
-15 -7 -15 -5 1 -15 1 -23 0 -13 -1 -13 -2 0 -12 12 -8 11 -9 -7 -7 -13 2 -29
-6 -42 -20 -11 -13 -24 -21 -29 -18 -12 7 -44 -28 -35 -39 5 -4 3 -5 -3 -2 -6
4 -23 -4 -38 -18 -14 -13 -26 -22 -26 -20 0 5 -30 -18 -55 -42 -7 -7 -15 -9
-19 -6 -3 4 -6 -1 -6 -11 0 -9 -4 -15 -9 -12 -5 3 -12 -1 -15 -10 -3 -8 -10
-13 -15 -10 -5 3 -12 -1 -15 -10 -3 -8 -11 -12 -16 -9 -6 4 -9 1 -8 -7 2 -7
-2 -12 -9 -11 -6 2 -15 -6 -18 -17 -4 -11 -11 -18 -16 -15 -5 4 -9 1 -9 -5 0
-6 -4 -8 -10 -5 -5 3 -10 -1 -10 -9 0 -9 -7 -16 -15 -16 -8 0 -15 -7 -15 -15
0 -8 -5 -15 -11 -15 -5 0 -7 5 -3 12 4 7 3 8 -5 4 -6 -4 -9 -12 -6 -17 4 -5 1
-9 -5 -9 -6 0 -8 -5 -5 -10 4 -6 3 -10 -2 -9 -18 3 -46 -1 -41 -7 9 -9 -31
-46 -42 -39 -5 3 -7 0 -4 -8 3 -8 1 -18 -5 -22 -6 -3 -11 -1 -11 5 0 7 -6 5
-15 -4 -8 -8 -15 -19 -15 -25 0 -6 -7 -11 -15 -11 -9 0 -20 -10 -25 -22 -5
-13 -9 -18 -10 -13 0 6 -10 -1 -21 -15 -11 -14 -18 -18 -14 -10 4 8 0 6 -9 -4
-8 -10 -13 -23 -10 -27 3 -5 -2 -6 -10 -3 -9 3 -17 -2 -21 -15 -3 -12 -11 -19
-16 -16 -5 4 -9 1 -9 -4 0 -6 -5 -10 -12 -8 -7 1 -13 -5 -13 -13 0 -8 -6 -14
-13 -13 -7 2 -11 -3 -9 -10 1 -6 -4 -11 -12 -9 -8 2 -11 -3 -8 -11 3 -9 -1
-14 -11 -13 -9 0 -16 -5 -15 -11 2 -7 -6 -13 -18 -13 -11 0 -18 -4 -15 -9 7
-10 -22 -37 -30 -28 -4 3 -3 14 1 24 10 21 12 29 14 44 0 5 5 8 10 4 6 -3 8 6
5 20 -2 14 0 25 6 25 5 0 10 8 10 18 0 10 6 24 13 31 10 11 9 13 -3 7 -9 -5
-9 -2 2 7 10 8 15 17 11 20 -3 4 -1 13 5 20 7 8 9 17 5 20 -3 4 -1 7 5 7 6 0
9 7 6 15 -4 8 -1 15 5 15 6 0 8 7 5 15 -4 8 -1 15 7 15 7 0 9 3 6 7 -4 3 -1
13 6 21 10 13 9 14 -2 8 -9 -6 -12 -5 -9 5 3 8 11 13 17 11 7 -1 10 2 6 8 -3
5 -1 19 5 30 8 15 8 20 -1 20 -6 0 -1 9 12 21 13 11 17 17 9 13 -13 -7 -13 -5
-2 9 8 9 11 21 7 27 -4 6 -1 9 7 8 9 -2 12 6 10 26 -3 18 0 26 7 22 7 -4 11 1
11 13 0 11 5 32 12 48 13 33 18 50 23 82 2 13 10 28 17 32 7 5 9 9 4 9 -5 0
-3 7 4 15 9 11 9 15 1 15 -7 0 -9 5 -6 10 4 6 11 7 17 4 6 -4 8 -2 4 4 -3 6
-2 13 3 16 5 4 8 17 7 31 -2 13 0 22 4 20 5 -3 11 2 14 11 3 8 2 12 -3 9 -5
-3 -3 7 4 22 7 16 15 35 17 43 2 8 10 21 18 28 10 9 10 11 1 6 -10 -5 -11 -1
-6 17 4 13 12 26 16 27 5 2 9 15 9 28 0 17 4 23 13 18 6 -4 9 -4 5 0 -3 4 -2
22 3 39 6 18 12 43 15 57 3 13 10 27 16 31 6 4 11 21 12 38 0 17 3 31 6 31 3
0 7 12 8 26 1 14 11 37 22 51 17 21 18 29 8 41 -10 13 -10 14 0 8 11 -6 17 5
13 27 0 4 3 7 9 7 5 0 7 6 4 14 -3 8 -1 17 5 20 6 4 7 14 4 23 -5 12 -3 14 7
8 10 -6 12 -4 7 7 -3 9 0 21 6 27 8 8 7 11 -3 11 -11 1 -10 3 3 11 9 6 15 14
12 19 -3 5 -1 11 5 15 6 4 8 11 4 16 -3 6 5 22 17 36 13 15 18 23 12 19 -8 -4
-13 -1 -13 9 0 9 5 13 10 10 9 -6 15 21 11 51 -1 6 5 17 13 23 8 7 12 20 9 28
-4 10 -2 14 4 10 6 -4 11 -1 10 6 0 6 1 26 2 42 1 23 3 27 11 15 10 -16 11
-13 14 36 1 17 7 39 15 47 7 9 10 20 7 26 -3 5 -2 11 4 13 5 1 11 19 12 40 2
20 8 36 13 35 6 -1 9 8 9 21 -1 12 2 22 6 22 4 0 7 10 6 23 -1 14 4 21 13 19
12 -3 12 -1 1 15 -8 10 -10 15 -6 11 13 -11 33 32 28 58 -4 21 -10 22 -99 23
-62 1 -92 -2 -88 -9 3 -5 1 -10 -4 -10 -6 0 -11 5 -11 11 0 8 -6 7 -17 -2 -9
-8 -14 -9 -11 -4 4 7 -19 11 -67 10 -40 0 -71 -3 -68 -7 2 -5 0 -8 -6 -8 -5 0
-11 6 -14 13 -3 9 -8 9 -18 -2 -12 -12 -12 -13 0 -6 10 6 12 4 6 -5 -6 -10
-11 -10 -20 3 -13 18 -30 24 -20 7 9 -14 -8 -13 -23 2 -8 8 -15 8 -26 -1 -11
-9 -15 -9 -19 1 -4 10 -7 10 -18 -1 -12 -12 -12 -13 0 -6 10 6 12 4 6 -5 -6
-10 -11 -10 -20 3 -13 18 -30 24 -20 7 9 -14 -8 -13 -23 2 -8 8 -15 8 -27 -2
-8 -7 -15 -8 -15 -2 0 5 -13 9 -29 8 -16 0 -27 -4 -25 -8 3 -5 -2 -8 -11 -8
-9 0 -14 4 -11 9 4 5 -93 9 -234 9 -181 0 -239 -2 -233 -11 5 -9 3 -9 -8 -1
-17 13 -253 18 -245 5 3 -5 -1 -11 -9 -14 -8 -4 -12 -1 -9 7 3 7 -4 12 -20 12
-17 0 -22 -4 -19 -15 3 -11 0 -10 -11 3 -12 15 -16 16 -16 5 0 -11 -10 -15
-35 -14 -20 1 -38 -2 -41 -7 -3 -5 -12 -4 -20 3 -10 8 -14 8 -14 0 0 -6 -7
-11 -16 -11 -9 0 -12 5 -8 13 6 9 5 9 -7 0 -9 -7 -24 -14 -35 -16 -10 -1 -25
-6 -31 -10 -8 -5 -13 -3 -13 3 0 6 -5 8 -10 5 -6 -4 -7 -12 -3 -18 4 -7 -2 -5
-12 3 -14 11 -17 12 -11 1 6 -9 5 -12 -5 -9 -8 3 -25 1 -39 -4 -14 -6 -38 -12
-55 -15 -16 -3 -31 -8 -33 -13 -2 -4 -12 -6 -22 -3 -12 3 -20 0 -20 -7 0 -7
-7 -10 -16 -6 -8 3 -12 2 -9 -4 3 -6 -3 -10 -14 -10 -12 0 -21 -4 -21 -9 0 -6
-9 -8 -20 -6 -13 3 -18 0 -14 -7 5 -7 1 -9 -9 -5 -10 3 -17 2 -17 -3 0 -6 -6
-9 -12 -7 -7 1 -12 -4 -10 -11 1 -8 -2 -11 -7 -8 -5 4 -13 1 -16 -5 -4 -5 -13
-8 -20 -5 -7 2 -16 -2 -19 -11 -4 -9 -13 -13 -22 -9 -8 3 -12 2 -9 -4 3 -6 -3
-10 -15 -10 -12 0 -24 -9 -30 -22 -5 -13 -9 -17 -9 -9 -1 9 -10 4 -24 -12 -12
-15 -28 -27 -35 -27 -7 0 -12 -5 -12 -11 0 -5 -4 -8 -9 -4 -5 3 -12 -4 -16
-15 -4 -11 -11 -18 -16 -15 -5 4 -9 2 -9 -4 0 -5 -9 -13 -20 -16 -11 -4 -18
-10 -15 -14 6 -10 -41 -52 -49 -44 -3 4 -6 -1 -6 -11 0 -9 -7 -19 -15 -22 -8
-4 -12 -11 -8 -17 4 -6 0 -8 -11 -4 -10 4 -15 3 -11 -3 3 -6 -1 -13 -9 -16 -9
-3 -16 -13 -16 -21 0 -8 -4 -11 -10 -8 -5 3 -10 -1 -10 -9 0 -9 -5 -16 -11
-16 -5 0 -8 -4 -5 -9 3 -5 -1 -12 -10 -15 -8 -3 -12 -10 -9 -16 3 -5 -1 -10
-9 -10 -9 0 -16 -7 -16 -16 0 -9 -5 -12 -12 -8 -7 5 -9 0 -6 -14 4 -16 2 -19
-10 -15 -12 5 -14 1 -10 -15 3 -12 3 -21 -1 -20 -3 0 -13 0 -21 -1 -13 -1 -13
-2 0 -11 13 -8 12 -10 -2 -10 -10 0 -18 -6 -18 -14 0 -7 -7 -19 -15 -26 -8 -7
-12 -16 -9 -21 3 -5 -3 -9 -12 -9 -10 0 -15 -3 -11 -6 3 -3 -3 -15 -13 -27
-11 -11 -16 -25 -13 -30 4 -6 0 -8 -11 -4 -9 4 -15 3 -12 -2 3 -5 -1 -14 -9
-21 -8 -7 -15 -22 -15 -34 0 -13 -3 -17 -8 -9 -5 8 -12 3 -20 -16 -7 -16 -24
-41 -37 -55 -13 -14 -22 -26 -19 -26 3 0 -6 -11 -20 -23 -14 -13 -23 -27 -20
-30 3 -3 -3 -14 -14 -25 -11 -11 -23 -17 -27 -14 -3 4 -3 -2 1 -12 5 -14 4
-17 -4 -12 -7 4 -12 1 -12 -8 0 -9 -4 -16 -10 -16 -5 0 -10 -7 -10 -15 0 -8
-4 -15 -8 -15 -5 0 -15 -11 -22 -25 -7 -13 -18 -22 -23 -18 -6 3 -7 1 -3 -5 3
-6 -5 -22 -18 -35 -14 -14 -22 -28 -19 -31 4 -3 -1 -6 -11 -6 -9 0 -15 -4 -12
-8 7 -11 -29 -64 -37 -55 -4 3 -7 -4 -7 -16 0 -12 -4 -20 -9 -17 -5 4 -15 -7
-23 -24 -7 -16 -20 -30 -28 -30 -13 0 -13 -1 0 -10 13 -9 7 -14 -12 -11 -5 0
-8 -8 -8 -19 0 -11 -5 -19 -12 -17 -7 1 -12 -4 -13 -11 0 -7 -7 -17 -15 -22
-8 -5 -10 -10 -5 -10 6 0 4 -4 -4 -9 -8 -5 -16 -17 -17 -26 -1 -9 -4 -18 -6
-18 -29 -15 -43 -28 -42 -40 1 -9 -1 -15 -5 -14 -3 1 -7 -1 -9 -5 -1 -5 -10
-16 -19 -26 -37 -39 -52 -62 -42 -62 5 0 8 -4 4 -10 -3 -5 -13 -6 -22 -3 -11
4 -14 3 -9 -5 4 -7 2 -12 -4 -12 -6 0 -9 -4 -5 -9 3 -5 -6 -21 -20 -35 -14
-14 -25 -30 -25 -36 0 -6 -5 -8 -12 -4 -8 5 -9 2 -5 -9 3 -9 1 -19 -5 -23 -7
-4 -8 -3 -4 4 4 7 5 12 3 12 -3 0 -18 -20 -34 -45 -15 -25 -31 -45 -35 -45 -4
0 -5 -6 -2 -14 3 -8 -3 -16 -16 -19 -12 -3 -19 -10 -15 -16 3 -6 1 -11 -4 -11
-6 0 -11 -5 -11 -10 0 -6 -12 -22 -26 -35 -17 -16 -22 -25 -13 -25 10 -1 9 -4
-4 -11 -9 -6 -14 -15 -11 -21 4 -6 3 -8 -3 -5 -8 5 -51 -33 -45 -40 1 -2 2 -9
2 -15 0 -10 -2 -10 -8 -1 -5 9 -12 1 -21 -22 -7 -20 -17 -33 -22 -29 -5 3 -9
2 -8 -3 4 -21 -2 -33 -16 -33 -8 0 -15 -7 -15 -15 0 -8 -9 -23 -20 -32 -11
-10 -20 -23 -20 -30 0 -7 -9 -17 -20 -23 -11 -6 -18 -15 -15 -19 2 -5 -2 -14
-10 -21 -8 -7 -12 -17 -8 -23 3 -6 1 -7 -5 -3 -7 4 -12 2 -12 -4 0 -6 -4 -9
-8 -6 -4 2 -9 -5 -9 -17 -1 -11 -9 -25 -18 -29 -8 -5 -12 -15 -8 -21 4 -8 1
-7 -9 1 -14 11 -16 10 -11 -7 3 -13 -2 -23 -17 -31 -12 -6 -19 -14 -16 -17 5
-5 -3 -17 -36 -54 -10 -10 -15 -19 -11 -19 4 0 -3 -7 -15 -16 -12 -8 -20 -19
-17 -24 3 -4 -2 -10 -10 -14 -8 -3 -15 -13 -15 -21 0 -9 -4 -13 -10 -10 -5 3
-10 -1 -10 -10 0 -18 -25 -47 -33 -39 -2 3 -7 -7 -11 -21 -4 -14 -10 -25 -15
-25 -5 0 -14 -13 -21 -30 -7 -16 -17 -27 -23 -23 -6 4 -8 0 -4 -10 4 -11 1
-17 -7 -17 -8 0 -17 -11 -20 -25 -4 -14 -11 -23 -16 -20 -9 6 -12 -2 -9 -22 0
-3 -6 -10 -15 -15 -9 -5 -13 -14 -10 -20 4 -6 3 -8 -3 -5 -6 4 -19 -3 -29 -16
-13 -14 -14 -18 -4 -12 9 6 7 2 -3 -7 -11 -10 -17 -18 -14 -18 4 0 -5 -11 -19
-25 -14 -14 -23 -29 -19 -34 3 -5 -4 -12 -15 -16 -11 -4 -18 -10 -15 -15 3 -4
-2 -10 -10 -14 -8 -3 -15 -12 -15 -19 0 -8 -9 -22 -19 -31 -11 -10 -25 -31
-32 -47 -9 -22 -14 -27 -20 -17 -6 10 -9 8 -10 -7 -1 -11 -1 -23 0 -27 0 -5
-5 -7 -12 -5 -6 1 -11 -4 -10 -10 2 -7 -2 -13 -8 -13 -5 0 -7 -4 -4 -10 3 -5
1 -10 -5 -10 -6 0 -18 -7 -26 -15 -11 -10 -12 -15 -3 -15 7 0 1 -10 -12 -23
-13 -13 -28 -21 -33 -19 -5 3 -6 0 -2 -6 3 -6 2 -13 -4 -17 -6 -4 -8 -11 -4
-16 3 -5 0 -8 -8 -7 -7 2 -12 -3 -10 -10 1 -8 -9 -23 -23 -34 -14 -11 -22 -25
-18 -31 4 -6 0 -8 -10 -4 -12 4 -14 2 -10 -10 4 -10 2 -14 -4 -10 -6 4 -14 -4
-17 -18 -4 -14 -11 -23 -17 -20 -5 4 -9 3 -8 -2 1 -4 0 -11 -1 -15 -1 -5 -3
-14 -4 -20 -1 -7 -9 -12 -19 -10 -12 2 -15 -2 -10 -14 4 -12 3 -15 -5 -10 -7
4 -12 1 -12 -8 0 -9 -4 -16 -10 -16 -5 0 -10 -9 -10 -21 0 -11 -4 -17 -10 -14
-5 3 -10 -1 -10 -9 0 -9 -7 -16 -15 -16 -9 0 -12 -6 -8 -17 4 -11 3 -14 -5 -9
-7 4 -12 1 -12 -8 0 -9 -4 -16 -10 -16 -5 0 -10 -7 -10 -16 0 -8 -4 -13 -9
-10 -5 3 -12 -1 -15 -10 -4 -10 -2 -13 6 -8 7 4 8 3 4 -4 -4 -7 -14 -12 -22
-12 -8 0 -12 -5 -9 -10 3 -6 -1 -13 -10 -16 -13 -6 -14 -8 -3 -15 10 -7 10 -9
-2 -9 -14 0 -60 -43 -50 -47 3 0 -7 -15 -23 -32 -15 -18 -22 -31 -15 -32 7 0
3 -4 -9 -9 -13 -5 -23 -16 -23 -25 0 -8 -7 -15 -16 -15 -8 0 -13 -4 -9 -9 3
-5 1 -12 -5 -16 -6 -4 -7 -11 -4 -17 4 -6 2 -8 -4 -4 -6 3 -13 -3 -17 -14 -3
-11 -13 -20 -21 -20 -8 0 -13 -6 -11 -12 1 -7 -3 -12 -10 -11 -7 2 -10 -4 -7
-12 4 -8 -1 -17 -10 -21 -9 -3 -14 -10 -11 -14 3 -4 -2 -11 -11 -14 -8 -3 -12
-10 -9 -16 3 -5 -2 -10 -11 -10 -10 0 -14 -3 -11 -6 4 -4 -3 -15 -14 -25 -11
-9 -20 -21 -21 -26 0 -4 -4 -7 -10 -5 -5 1 -7 -2 -3 -8 3 -5 1 -10 -4 -10 -6
0 -10 -3 -9 -7 3 -15 -14 -43 -22 -38 -5 3 -11 -4 -15 -15 -4 -11 -11 -17 -17
-14 -7 5 -8 2 -3 -6 5 -7 -2 -20 -16 -34 -13 -11 -30 -33 -38 -48 -8 -16 -18
-28 -23 -28 -5 0 -6 5 -3 10 3 6 3 10 -2 10 -6 0 -8 277 -2 350 1 8 1 18 0 23
-3 9 -3 114 -1 125 1 4 2 53 2 110 0 69 4 102 12 102 6 0 4 5 -4 10 -8 5 -10
10 -5 10 6 0 3 5 -5 10 -13 9 -12 12 4 25 12 9 15 15 7 15 -10 0 -12 10 -7 38
7 45 7 43 3 117 -3 37 1 70 9 86 9 18 10 29 3 36 -13 13 -19 63 -8 63 4 0 6
10 4 22 -3 12 1 26 8 30 9 6 9 8 0 8 -7 0 -13 5 -13 11 0 6 6 7 13 2 6 -4 4 5
-6 20 -16 25 -16 26 0 20 15 -6 16 -4 6 8 -10 12 -10 18 -1 27 7 7 8 12 2 12
-5 0 -10 9 -10 20 0 11 4 20 9 20 5 0 4 6 -2 13 -6 8 -8 17 -4 20 3 4 7 112 7
239 1 128 4 238 9 245 4 6 3 14 -3 18 -7 4 -7 12 0 24 5 10 6 21 3 25 -11 11
-9 76 2 76 5 0 4 4 -3 9 -16 9 -15 20 1 40 9 12 9 13 0 7 -7 -4 -13 -3 -13 3
0 5 5 13 10 16 7 5 8 11 1 19 -6 7 -6 17 -1 26 5 8 6 19 2 25 -13 21 -11 37 5
31 12 -5 13 -3 6 6 -15 18 -16 111 -2 102 6 -3 3 6 -7 22 -11 15 -14 25 -8 22
7 -5 11 4 11 22 0 18 -4 27 -11 23 -6 -3 -5 0 2 8 14 15 17 33 4 25 -5 -3 -9
1 -9 9 0 8 4 12 9 9 13 -8 10 10 -4 25 -10 11 -10 12 -1 7 9 -5 12 2 10 26 -2
18 1 39 6 46 5 6 6 12 1 12 -8 0 -8 35 -3 165 0 6 -2 22 -4 38 -2 15 -1 27 2
27 3 0 6 90 6 201 -1 110 3 203 7 205 4 3 8 11 8 17 0 7 -4 6 -10 -3 -8 -13
-10 -13 -10 2 0 9 5 20 10 23 6 4 7 12 3 18 -12 19 -12 68 0 60 6 -4 7 -1 1 8
-11 19 -12 60 -1 83 6 13 6 16 -2 12 -6 -4 -11 0 -11 9 0 10 5 13 13 9 9 -6 9
-5 0 8 -7 8 -10 18 -6 22 9 9 13 37 4 32 -12 -8 -6 61 7 77 10 12 10 17 1 23
-8 5 -9 3 -4 -6 5 -8 4 -11 -3 -7 -8 6 -10 42 -2 42 1 0 3 10 4 22 1 12 -1 20
-6 17 -4 -3 -8 0 -8 5 0 6 5 11 10 11 6 0 10 5 10 11 0 5 -4 8 -8 5 -5 -3 -9
2 -9 10 0 8 6 13 13 10 8 -3 11 0 7 9 -3 8 -10 12 -17 8 -7 -4 -7 -2 1 7 9 9
9 19 2 33 -8 14 -8 18 0 13 6 -4 11 0 11 9 0 9 -4 13 -10 10 -5 -3 -10 -1 -10
4 0 6 5 11 10 11 6 0 10 5 10 11 0 5 -6 7 -12 3 -10 -6 -10 -5 -1 7 7 9 11 32
10 52 -2 20 1 37 5 37 5 0 6 5 2 12 -12 19 -12 68 0 68 7 0 8 3 1 8 -13 9 -16
42 -3 42 5 0 6 6 1 13 -10 17 -11 98 -1 119 4 9 4 19 -1 22 -4 3 -7 18 -4 33
3 26 5 277 1 315 -1 15 -41 17 -516 17 -348 1 -519 -2 -527 -9 -9 -8 -15 -8
-20 0 -8 13 -18 13 -31 0z m5916 -6 c0 -8 -19 -13 -24 -6 -3 5 1 9 9 9 8 0 15
-2 15 -3z m350 2 c0 -2 -7 -7 -16 -10 -8 -3 -12 -2 -9 4 6 10 25 14 25 6z m40
-2 c0 -8 -19 -13 -24 -6 -3 5 1 9 9 9 8 0 15 -2 15 -3z m3044 -569 c-4 -8 -11
-12 -16 -9 -6 4 -5 10 3 15 19 12 19 11 13 -6z m117 -2 c13 -16 12 -17 -3 -4
-17 13 -22 21 -14 21 2 0 10 -8 17 -17z m8749 -119 c0 -8 -19 -13 -24 -6 -3 5
1 9 9 9 8 0 15 -2 15 -3z m40 0 c0 -8 -19 -13 -24 -6 -3 5 1 9 9 9 8 0 15 -2
15 -3z m40 0 c0 -8 -19 -13 -24 -6 -3 5 1 9 9 9 8 0 15 -2 15 -3z m40 0 c0 -8
-19 -13 -24 -6 -3 5 1 9 9 9 8 0 15 -2 15 -3z m120 0 c0 -8 -19 -13 -24 -6 -3
5 1 9 9 9 8 0 15 -2 15 -3z m40 0 c0 -8 -19 -13 -24 -6 -3 5 1 9 9 9 8 0 15
-2 15 -3z m40 0 c0 -8 -19 -13 -24 -6 -3 5 1 9 9 9 8 0 15 -2 15 -3z m40 0 c0
-8 -19 -13 -24 -6 -3 5 1 9 9 9 8 0 15 -2 15 -3z m120 0 c0 -8 -19 -13 -24 -6
-3 5 1 9 9 9 8 0 15 -2 15 -3z m40 0 c0 -8 -19 -13 -24 -6 -3 5 1 9 9 9 8 0
15 -2 15 -3z m40 0 c0 -8 -19 -13 -24 -6 -3 5 1 9 9 9 8 0 15 -2 15 -3z m40 0
c0 -8 -19 -13 -24 -6 -3 5 1 9 9 9 8 0 15 -2 15 -3z m270 2 c0 -3 -4 -8 -10
-11 -5 -3 -10 -1 -10 4 0 6 5 11 10 11 6 0 10 -2 10 -4z m720 0 c0 -3 -4 -8
-10 -11 -5 -3 -10 -1 -10 4 0 6 5 11 10 11 6 0 10 -2 10 -4z m240 -6 c0 -5 -2
-10 -4 -10 -3 0 -8 5 -11 10 -3 6 -1 10 4 10 6 0 11 -4 11 -10z m-13407 -815
c-3 -9 -8 -14 -10 -11 -3 3 -2 9 2 15 9 16 15 13 8 -4z m13007 -755 c0 -5 -5
-10 -11 -10 -5 0 -7 5 -4 10 3 6 8 10 11 10 2 0 4 -4 4 -10z m-18596 -1225
c-4 -8 -11 -12 -16 -9 -6 4 -5 10 3 15 19 12 19 11 13 -6z m-1791 -1560 c-7
-21 -12 -19 -10 4 0 11 5 18 9 15 4 -3 5 -11 1 -19z m0 -80 c-7 -21 -12 -19
-10 4 0 11 5 18 9 15 4 -3 5 -11 1 -19z m2738 -2682 c13 -16 12 -17 -3 -4 -17
13 -22 21 -14 21 2 0 10 -8 17 -17z m683 -1 c3 -5 -1 -9 -9 -9 -8 0 -12 4 -9
9 3 4 7 8 9 8 2 0 6 -4 9 -8z m541 -2 c3 -5 1 -10 -4 -10 -6 0 -11 5 -11 10 0
6 2 10 4 10 3 0 8 -4 11 -10z m240 0 c3 -5 1 -10 -4 -10 -6 0 -11 5 -11 10 0
6 2 10 4 10 3 0 8 -4 11 -10z m240 0 c3 -5 1 -10 -4 -10 -6 0 -11 5 -11 10 0
6 2 10 4 10 3 0 8 -4 11 -10z m10029 -58 c3 -5 -1 -9 -9 -9 -8 0 -12 4 -9 9 3
4 7 8 9 8 2 0 6 -4 9 -8z"/>
<path d="M16906 19342 c-3 -5 1 -9 9 -9 8 0 12 4 9 9 -3 4 -7 8 -9 8 -2 0 -6
-4 -9 -8z"/>
<path d="M8830 18881 c0 -6 4 -13 10 -16 6 -3 7 1 4 9 -7 18 -14 21 -14 7z"/>
<path d="M8790 16360 c0 -5 5 -10 11 -10 5 0 7 5 4 10 -3 6 -8 10 -11 10 -2 0
-4 -4 -4 -10z"/>
<path d="M8790 16279 c0 -5 5 -7 10 -4 6 3 10 8 10 11 0 2 -4 4 -10 4 -5 0
-10 -5 -10 -11z"/>
<path d="M3170 12359 c0 -5 5 -7 10 -4 6 3 10 8 10 11 0 2 -4 4 -10 4 -5 0
-10 -5 -10 -11z"/>
<path d="M3426 12358 c3 -5 10 -6 15 -3 13 9 11 12 -6 12 -8 0 -12 -4 -9 -9z"/>
<path d="M4010 12359 c0 -5 5 -7 10 -4 6 3 10 8 10 11 0 2 -4 4 -10 4 -5 0
-10 -5 -10 -11z"/>
<path d="M4130 12359 c0 -5 5 -7 10 -4 6 3 10 8 10 11 0 2 -4 4 -10 4 -5 0
-10 -5 -10 -11z"/>
<path d="M10855 12070 c-2 -3 9 -6 25 -6 17 0 27 2 25 5 -8 7 -45 9 -50 1z"/>
<path d="M11126 12072 c-3 -5 1 -9 9 -9 8 0 12 4 9 9 -3 4 -7 8 -9 8 -2 0 -6
-4 -9 -8z"/>
<path d="M11366 12072 c-3 -5 1 -9 9 -9 8 0 12 4 9 9 -3 4 -7 8 -9 8 -2 0 -6
-4 -9 -8z"/>
<path d="M15440 12070 c-9 -6 -10 -10 -3 -10 6 0 15 5 18 10 8 12 4 12 -15 0z"/>
<path d="M18656 10365 c4 -8 8 -15 10 -15 2 0 4 7 4 15 0 8 -4 15 -10 15 -5 0
-7 -7 -4 -15z"/>
</g>
</svg>
